<svg version="1" xmlns="http://www.w3.org/2000/svg" width="533.3" height="533.3" viewBox="0 0 400 400"><path d="M193.5 3c1.4.5-.2 1-5.7 1.4-5.8.6-7.8 1-7.8 2.2 0 1 1 1.3 4 .8 2.2-.4 6.7 0 11 1 8.2 2 10.6 1.6 3.3-.4-6.3-1.7-7-2.2-4.7-3 3-1.2 6.6-1.2 6 0-.5.6-.4 1 0 .8C201 5.4 207 8 207 9.2c0 .5.4.7 1 .4.4-.4 2.5 1.2 4.6 3.4 3.3 3.5 4 3.8 4.6 2.3.6-1.6.7-1.6.7.2 0 1-.5 2.8-.8 3.8-.7 1.6-1.3 1.3-4.7-2-2.5-2.6-4.5-4-5.4-3.5-1.3.5-1.3.3-.2-1 1.3-1.6.8-1.7-4.5-1.6-3.2 0-8.6-.2-12-.6-4.6-.7-6.3-.6-6.3.3 0 1.2-3.6 1.4-4.4 0-.6-.8-2.4-.5-12 2.3-8 2.2-13 4-14.6 5.3-.8.6-3.7 1.7-6.5 2.4-2.7.7-5.8 2-6.7 2.8-1 .7-2.2 1-2.7.7-.5-.3-1-.3-1 .2 0 .4-1.5 1.4-3.2 2.2-2.8 1-6.7 3.7-11.3 7.3l-3 2.2c-1 .7-1.7 1.7-1.2 2 1.2 1.3 6-.8 7.2-3 .5-1 1.8-2 2.7-1.7 1 .2 3.4-.6 5.5-1.7 2.3-1 4.5-1.5 5.2-1 .8.5-1.3 1.7-6 3.6-4.2 1.6-7.7 3-8 3.4-.3.4-1.3 1-2.2 1.3-3 1-2 2.4 1.2 2 1.6-.3 2.7-1 2.4-1.4-.3-.6.8-1 2.5-1 1.5 0 3 .4 3.4 1 .7 1-4 4-5.6 3.7-.7-.2-1-.2-.5 0 1.4 1 .7 2.5-1 2-1-.5-1.2-.3-.7.5.5.7 0 1-1.4.6-1.2-.4-2.5 0-3 .4-.2.7 0 .8.6.4.7-.4 1.2-.3 1.2.2 0 1.4-6.4 2.5-6.8 1.2-.2-.6-1.7-.8-3.8-.4-4.8 1-3.6-2 1.4-3.2 3.5-1 3.6-1 1.6-2.2-1.8-1-3-.8-6.5 1.2-3 1.5-4.4 3-4.3 4 0 1.3-.4 1.6-2 1.2-1.6-.4-4 1.4-10.6 7.8C85.5 62 79 68 75.8 71 69.2 77 61 88 61 91c0 1.5-.2 1.5-1 .2-1-1.2-1-1-.7.8.3 1.2 0 2-.3 1.7-1.3-.8-3 3-2.4 5.2.5 1.5.4 1.5-.5.3-.5-1-1-1-1-.3 0 .6-.8 1.4-1.8 1.7-2 .7-4.2 5.8-4.2 10.2 0 1.6-.5 3.6-1 4.4-1 1-1 .5-.5-2.5.6-3.7.5-4-1-2-.7 1-1.5 2.5-1.5 3 0 .7-2.3 6.2-5 12.3-2.8 6-5.2 12.3-5.4 14-.3 1.4-1 4-2 5.6-.8 1.6-1.8 4.8-2.2 7-.3 2.3-1 4.6-1.6 5.3-.5.7-.6 1.8-.2 2.4.4.8.3 1-.3.7-1-.7-2.8 2.2-1.8 3 .3.4.5 0 .5-.7s.3-1 .6-.7c.3.3-.5 2.8-2 5.5-1.3 2.7-2.7 7.8-3.2 11.3l-.8 6.5-.7-5c-.7-4.4-.8-4-.8 3 0 4.4 0 9-.2 10v2l-1-2c-.5-1-.7-4.3-.4-7 .4-5 0-5.2-1-.3-.4 1.6-1 2.7-1.4 2.7-2.2-.5-3.2.3-3.2 2.4 0 2.5 2.2 5 3.3 4 .4-.4.7-.4.7 0 0 .3-1.2 1-2.7 1.7-2.5 1-2.6 1.2-1 2 2.2 1.4 1.3 3-1.8 3-3 0-4 1.4-2.5 4 .7 1.3.7 2 0 2-2.2 0-.8 4.7 2.6 8.5 2 2.2 4 4 4.5 4 .6.2 1.8.3 2.8.4 1.3 0 1.4.2.4 1-1 .5-.7 1 1.3 1.4 1.4.4 3 .4 3.7 0 .7-.4.8-.3.4.4-.5.8.3 1.2 2.3 1.2 1.6 0 3-.4 3-1 0-.4.7-1 1.6-1.4 1-.3 1.2-.2 1 .5-.5.7.2.8 2 .4 2.5-.6 2.7-.5 1.7.8-.8 1-1 1.8-.2 2.5.6.5.7 2 .3 3-.4 1.2-.5 6.4 0 11.5 1.6 23.2 1.6 23 8.6 24.3 2.2.4 4.3 1.3 4.6 2l1 3.3c.4 1 .8 3 1 4.6 0 1.6.7 3.2 1.4 3.6.8.5.5 1-1 1.3-1.3.3-1.8 1-1.4 2 .4 1.2 0 1.7-1 1.7s-1.6-1-1.7-2.3c-.2-1.7-.3-1.8-.7-.4-.3 1 .3 3 1 4.3 1.4 1.8 2.3 2.3 4.2 1.8 2.4-.6 7.4 2 7.5 4 0 .6 2 2 4.2 3 2.3 1.2 5 3.4 5.7 5 2.8 5.2 9 11.5 15.6 15.6 6.6 4.2 9.6 5.2 7.4 2.5-1.5-1.8-.7-2 2-.4 1.2.6 1.8 1.5 1.5 2-.4.6-.2 1 .3 1s1.3 3 1.6 7l.8 7.7c0 .5 1.6 2.6 3.4 4.7 2 2.2 3.4 4.3 3.4 4.8 0 1.2 4.8 1 5.5-.2.4-.6 1-.8 1.6-.4.7.3 2.8-.5 5-2 3-2 3.7-3 3.3-5-.4-2-.2-2.5 1.8-2.3 2.6.2 6.5 4 7.5 7 .4 1 1.3 1.7 2 1.7 2 0 2 0-2.4 7.7l-3.7 6.8-10.4 1.7c-18.6 3-17 2.2-17 8.4 0 4 .4 5.6 1.6 6 1 .4 2 0 2.5-.7.8-1.3 1-1.3 1 0 0 1 .4 1 1.6-.5.8-1 2-2 2.7-2l2.3-.4c.7 0 1.5-1 1.8-2.4.3-1.3 1.8-3 3.2-4l2.6-1.8-.4 3.5c-.2 2 0 3.3.4 3 .4-.2.8-1.4.8-2.5 0-1.2.3-2 .6-1.5.3.3 1.7-.7 3-2.4 2.5-3 5.4-4 5.4-2 0 .5-.5 1-1 1-.7 0-1 .6-.7 1.2.2.7 1 1.2 1.5 1 1-.2.3 2.5-1.7 6.3-.3.6.3.2 1.3-.8s1.7-1.4 1.7-.8c0 .5.5 1 1 1 .6 0 1-.4.6-1-.8-1 .4-4 1.6-4 .5 0 .6.5.3 1-.3.6 0 1 1 1 .8 0 1.5-.8 1.5-1.7 0-1 .3-1.3.6-1 .4.3 0 2.3-1 4.4-1 2-2 6-2.2 8.8-.2 2.7 0 4 .2 3 .7-3.3 4-2 4.6 1.5.2 1.6 0 3.6-.4 4.4-.5.8-.4 1.7.2 2 .5.4 1-.2 1-1.3 0-1 .5-2 1-2 .7 0 1 .7.6 1.6-.4 1 0 2.4.8 3.3.7.8 1.7 3.6 2 6.3.4 2.6 1.2 4.7 1.7 4.7.7 0 1-.8.6-1.8l-1.2-4.7c-.4-1.7-1-3.5-1.4-4-.7-.8-2.4-14.5-3.3-25 0-1.8-.7-3-1.4-2.8-.7.2-1.3-.2-1.3-.7 0-.6.4-1 1-1 .5 0 .7-2.2.5-5-.2-2.7 0-5 .3-5 1.2 0 5.7 7.3 5.4 8.7-.2.7.6 1.3 1.8 1.3 1 0 2 .3 1.8.7-.4 2 1.6 6.3 2.8 6.3.8 0 1.4.4 1.4 1 0 .8 4.8 5.7 11 11 2 1.8 4 2.5 6.3 2 .4 0 .7.6.7 1.3 0 2.4 12 9.7 16 9.7 1 0 2 .4 2.4 1 .3.4 3.4 1 6.8 1.5 3.5.4 6.8 1 7.5 1.7.6.5 2.4.8 4 .6 2.2-.2 2.8 0 2.7 1.4-.2 1.5.6 1.8 4 1.7 2.2-.2 3.2-.4 2-.7-4-1-3.8-2.3.4-2 2.8 0 4.2.5 4.2 1.4 0 1 3.7 1.3 18.5 1.3 11.7 0 18.5-.4 18.5-1s.6-1 1.4-1c.8 0 2.3-1.4 3.3-3 1-1.7 2.2-3 2.8-3 .5 0 3.5-2.3 6.5-5 5.8-5.4 13.3-11 14.7-11 .4 0 1.4-1 2-2 .8-1 2-2 2.8-2 .8 0 2.5-.6 3.6-1.3 2-1 2.4-1 4 1.2 1 1.2 2 4 2 6 .2 2 .5 4.5.8 5.8l.7 2.3 2.3-2 2.3-2.2.8 2.3c.4 1.8 1.2-.6 2.6-8 2-9.4 2.3-10.3 4.5-10.7 2.4-.4 6 2 6 4.3 0 .7.5 1.6 1 2 .8.4 1-.6 1-3.2-.5-7-.2-8.3 2-7.7 1.4.4 2.2-.2 3-2.3l2-4.7c.7-1.2.5-2.7-.5-4.7-.8-1.6-1.5-3.8-1.5-5 0-1-.4-2-.8-2.2-.4 0-1.8-2-3-4.2l-2.5-3.8 2.3 1.2c2.7 1.4 2 .3-2-4.3-3.5-4-4.4-7.7-2.2-9.3 2.3-1.8 2.8-1.7 5.2.8 1 1.2 2 1.6 2 1 0-1 .5-1 2-.2 2.6 1.4 10 1.4 8 0-1-.8-1-1 1-.5s3.5 0 6-2c3.4-3 3.4-4.3 0-2.5-1.2.6-3 1-3.8.5-1.3-.5-1.3-.8.5-2 1-.8 2.6-3 3.3-4.7.8-1.8 2.4-4.5 3.6-6 1.6-2 2.2-3.8 2-5.8-.4-2.5 0-3 1.7-3 3.8 0 7-1.2 5.7-2-.7-.4-1-1.3-.6-2 1-1.6 2.6-1.2 2.6.7 0 2 1 1 1.4-1.4.2-1 1.5-2.2 3.4-2.8 2.5-.7 3.3-1.6 3.8-4.2.4-2 1.2-3.3 2-3.3 2.5 0 1-2.3-1.7-2.7-1.4-.2-2.6-.8-2.8-1.3-.2-.6-1.5-1-2.8-1-2.4 0-3.5-2-1-2 .5 0-1-1-3.6-2.2-2.7-1-4.8-2.5-4.8-3 0-.7.5-.7 1.3 0 4 3 15.7 3.8 15.7 1 0-.5.4-.7 1-.3 2.2 1.3 6-.8 7.5-4.3l3-6.6c1.4-2.7 1.4-2.8-.8-2-3.2 1-8.7 1.5-8.7 1 0-.3 2-2.6 4.4-5.2 4.4-4.6 6.6-10 6.6-16 0-1.7.5-3.5 1.2-4.2 1.7-1.7.3-2.5-2-1.2-2 1-2.2 1-1.6-1.7l1.4-5.6c1-3.4.4-3.4-2.2-.2-1 1.4-2.4 2.3-3 2-.4-.4-.8 0-.8 1s-.4 1.4-1 1c-.4-.3-2.5.4-4.4 1.6-2 1.2-3.6 1.7-3.6 1 0-.5-1.6 0-3.6 1.2-3 1.8-4 2-7.5 1-2.3-.8-3.8-1.7-3.5-2.3.4-.6 1-.8 1.5-.5 1 .6 6-4 5.2-5-.3-.2.2-.6 1-.6 2.6-.3 3-.4 7.8-2.7 5-2.3 9-5.2 7.4-5.3-.6 0-1.7.7-2.4 1.5-1.4 1.7-4 2-4 .5 0-.6.5-1 1-1 .6 0 1-.5 1-1 0-.7 1-2.3 2-3.7 1-1.4 1.7-3 1.4-3.4-.3-.6-.6-2.8-.6-5 0-2.7-.5-4-1.4-4-.8 0-1.4-.7-1.4-1.5v-2.2c0-.4 1.5-1 3.5-1 3-.4 3.5 0 3.5 1.6 0 1 .5 2 1 2 .6 0 1 1.2 1 2.7 0 1.6.4 2.2.7 1.4.3-.6 0-3-.8-5.2-1.4-4-1.3-4 1.3-6.2 2.5-2 4-7.5 1.6-6-.7.3-1 1.2-.6 2 .7 2-2.3 4.2-3.4 2.5-.5-.7-1-.8-1.4-.2-.3.6 0 1.3.6 1.5.7.3.8.6.2.6-1.2 0-5.4-3.7-5.4-4.8 0-.4 1.5-1.6 3.2-2.7 3.6-2.3 9.7-11.8 9.8-15.3 0-3-2.7-7-7.4-10.3-4.7-3.6-8-4-5-1 1.2 1.5 2 4 2.2 9l.4 7h-3c-1.8 0-3.2-.5-3.2-1 0-.6-.4-1-1-.5-.5.3-.8-.3-.7-1.2 0-2-8-19.2-9.8-20.6-1-1 .2-.6 3.8.8 3 1.3 1.8-1.3-1.7-3.4-3-1.7-3.5-2.8-4-7-.5-2.8-1.2-4.7-1.7-4.4-.6.3-1-1-1-2.8.2-3 .2-3.2 1-.8l.8 2.5v-2.7c.2-1.5-.2-3-.7-3.2-.3-.3-1-2.4-1.4-4.6-.3-2.3-1-4-1.5-3.6-.4.3-1 0-1.4-1-.3-1-.2-1.2.5-.8.7.3.4-1-.5-2.7-2.4-4.7-2.8-5-2-1.5.3 1.7.2 2.3-.2 1.5-.5-.8-1.6-2.7-2.7-4.2-1-1.6-1.6-3.5-1.2-4.3.3-.8 0-3.3-1-5.6-.7-2.4-1.4-5.3-1.4-6.7 0-2.8-3.3-9.7-6.6-13.6C332 82 331 80.5 331 80c0-1.2-5.8-9.8-7-10.6-.7-.3 0 1.7 1.6 4.5 1.4 2.8 2.4 5.4 2 5.7-.3.4-.6 0-.6-.7 0-1-.3-1-1.5 0s-1.5.7-2-1.4c-.4-1.3-.4-3 0-3.5.3-.5 0-1-1-1-.7 0-1.7-.5-2-1.2-.6-.7-.4-.8.4-.3 1 .5.8.2 0-1.3-.8-1.2-1.7-2-2-2-.4.2-1.8-.5-3-1.5l-4.3-3c-1.4-1-1.6-2-1-4.7.5-3 .8-3 1.4-1.5.7 1.6 1 1.6 1 .4 0-2-2.5-4.4-4-3.5-.5.3-.8 0-.5-.7.3-.8-2.2-4-6-7.7-3.6-3.4-6.5-5.8-6.5-5.4 0 .5 2.8 3.5 6.2 6.6 3.3 3.2 5.6 5.8 5 5.8-.6 0-4-2.8-8-6.3-3.6-3.4-8.4-7.3-10.4-8.5-2-1.3-3.8-2.8-3.8-3.3 0-1.5.8-1.2 5.8 2 4 2.7 4.2 2.8 1.7.6l-4.3-3.7c-1.8-1.6-15.2-5.8-24-7.6-4.2-1-8-2-8.2-2.3l-3.3-1.8c-1.6-.7-3.2-2.5-4-4.2-1-3-3.4-4-4.3-1.6-.3.8-1.2 1.7-2 2-1.3.5-1.5 0-1-1.4.7-3-1.4-2.5-5.6 1.4-2 2-4 3.2-4.2 3-.3-.4-1 .5-1.7 2-1.3 2.6-3.7 3.8-2.7 1.3.3-.8-.6-2.7-2-4.2-2-2.4-2.3-2.5-2.3-1 0 1.6-.2 1.7-1 .6-.4-.6-1.2-1-1.8-.6-.6.3-1-.5-.8-2 0-2.7.6-3 2.5-1.2 1 1 1 .8 0-1.5-.8-1.5-2-2.7-2.7-2.7-.7 0-1.3-.4-1.3-.8 0-.8-1.8-1.7-12-6-2.5-1-6.7-2.2-9.5-2.5-3-.4-4.2-.3-3 .2zm-13.2 11.7c-.7.2-2 .2-2.5 0-.7-.3-.2-.5 1.2-.5s2 .2 1.3.5zM247 18c0 .5-.2 1-.4 1-.3 0-.8-.5-1-1-.4-.6-.2-1 .3-1s1 .4 1 1zm-93.5 4c-2.7 1.2-4.3 1.2-2.5 0 .8-.5 2.2-1 3-1 1 0 .8.4-.5 1zm85.5 0c0 .4-.7 1-1.6 1.4-2.4 1-2.8.7-1.4-1 1.4-1.6 3-2 3-.5zm28.5 13c.3.5.2 1-.4 1-.4 0-1.2-.5-1.5-1-.3-.6-.2-1 .4-1 .4 0 1.2.4 1.5 1zM207 39c-2 1.2-4 1.3-4 0 0-.8 4-2 5-1.2.2.2-.2.7-1 1.2zm68.6 1c.3.7 1.7 1 3.3.5 2.5-.6 2.4-.6-1 2.5-3 3-3.3 3-5.7 1.5-3-2-2.4-3.2.7-1.5 3 1.7 4 .2 1-2-1.6-1.5-1.8-2-.7-2 1 0 2 .5 2.3 1zm-75 1c-.4.5-1.3 1-2 1-.6 0-.5-.4.4-1 2-1.2 2.3-1.2 1.5 0zm-64 2c-.4.4 0 1 .6 1.3.8.3.6.6-.4.6-1.8 0-2.4-1-1-2.3.8-1 1.4-.8.8.2zm19 .4c-3.7 1.5-9.3 3-8.5 2.2 1-1 8.3-3.5 10-3.5.8 0 .2.7-1.5 1.4zM260 45c0 1.4 2.7 1.3 3.2-.2.4-1 3 .2 12.3 6 1 .6 2.8 1.5 3.8 1.8 1 .3 1.7 1 1.7 1.5s1.6 1.4 3.5 2c3.3 1.3 3.4 1.5 1.8 3.2-1.3 1.5-1.4 1.8-.2 1.3 1.7-.6 10 5 10 6.7 0 .6-1 .3-2-.6-1-1-2.7-1.5-3.7-1.2-1.8.5-7.3-3.4-7.3-5.3 0-.4-.8-.6-2-.3-1 .3-2 0-2.4-.6-1-1.3-2.6-1.3-2.6 0 0 .5.3 1 .8.8 1.4-.4 9 5.7 8.7 7-.2.6 0 1.4.5 1.7.6.4 1 0 1-.5 0-.8.6-.8 2 0 2.7 1.4 2.5 2.6-.3 2.5-3.2-.2-5-1.4-4.3-3 .3-1 0-1.5-1-1.5-.7 0-2.3-1-3.6-2.3-1.3-1.2-4.4-3.7-7-5.5-2.6-1.8-5-4-5.7-5-.6-1.3-1-1.4-2.3-.4-2 1.8-3-.2-1-2.2.7-1 1-1.6.3-1.6-.6 0-1.6-.5-2.3-1-.7-.6-2-1.7-3.2-2.5-1.8-1.3-1.8-1.4-.2-1.5 1 0 1.7.4 1.7 1zm21.7.3c.4.8 2.8 2.7 5.3 4.3 2.5 1.6 5 3.5 5.8 4 1.7 1.7 5.8 2.8 7 2C301 55 309 58 309 59c0 .5-1 1-2 1.3-1.5.4-2.3 0-3-1.5-.5-1.6-1-1.8-1.5-1-.4 1-.2 1.8.5 2.2.7.4 1 1.3.5 2-1 1.4-3.5-.5-3.5-2.7 0-.8-.4-1-1-.8-.5.3-3.4-.8-6.4-2.5-3-1.6-6.2-3-7-3-1 0-1.5-.4-1.3-1 0-.4 0-.7-.4-.7-1.2.3-4-2.5-3.4-3.4.3-.6 0-1-.5-1s-1-.7-1-1.5c0-2 1.6-2 2.7-.2zM129 46c0 .5-.5 1-1 1-.6 0-.8-.5-.5-1 .3-.6.8-1 1-1 .3 0 .5.4.5 1zm6.5 2c.3.5.4 1 0 1l-2 .6c-1 .5-1.4.2-1-1 .8-1.8 2-2 3-.6zm8.5-.3c-.8.3-2.5 1.6-4 3-1.3 1.2-3.6 2.7-5 3.3-1.4.6-3 2-3.8 3-1 1.7 0 1.4 5.5-1.7 4.8-2.7 8-3.8 11-3.8 3.8 0 5.2 1.4 1.5 1.6-1.4 0-1.3.3.3 1 1.7.7 1.6 1-1 1-1.5 0-2.5.3-2.2.6.8 1-3.7 4.4-6.3 5-1 0-2.4.5-3 1-.4.2-1 0-1.4-.5-.7-1 2-3.3 7.2-6 2.4-1.2 4-2.4 3.8-2.7-1-1-11.6 5-11.6 6.5 0 .8-.6 1.2-1.4 1-.8-.4-1.6-.2-1.8.3-.2.7-1 .5-2.2-.3-1.8-1.3-1.7-1.5 1-4C134 52 142 47 144 47c1.3 0 1.3.2 0 .7zm7.6 1.4c-1.5 1.2-3 1.8-3.8 1.4-.8-.5-.3-1.2 1.7-2 4.4-2 5-1.7 2 .7zm-22 .4c-1.3 1-1.4 1.5-.4 2 1 .5 1 .7 0 1.2-.6.3-1 1-.6 1.5.3.6 0 1-.5.8-1-.3-7 3.3-7 4.3 0 .4 1.5.5 3.4.4 5-.4 6.5 2 2.4 4-2.2 1-3.6 1-4.4.5-1.3-1.2-8.8 3.2-7.7 4.4.4.3 0 .7-.5.7-2.6.4-3 .5-3.8 1.2-.4.5-1.4.8-2.3.8-1 0-.3-.8 1.5-2 1.7-1 4-2.8 5.5-4 2-1.8 2-2 .5-1.5-1 .4-3 1-4.5 1.2-2.3.4-2.4.3-.7-1 1-.8 1.7-2 1.7-2.8 0-2.6 3-6.2 4.7-5.6 1 .4 1.7 0 2-1.3.6-2.2 3.3-3.6 3.3-1.6 0 .8-.6 1.7-1.2 2-.7.2-.8.5-.2.5.5 0 2-.7 3-1.6 1-.8 1.3-1.3.7-1-.7.4-1.3.2-1.3-.3s.7-1 1.5-1 1.5.5 1.5 1.2c0 1.3 1.4.2 1.6-1.3l.3-2c0-.6.8-1 1.8-1 1.6 0 1.6 0 0 1.4zm121.5 10.8c1.2 2 1.2 2.2-.3 1-1-.8-1.7-1.8-1.7-2.3 0-1.6 1-1 2 1.2zm11.6 2.5c.4 1.3 2 3.6 4 5.3 2 1.6 3.4 3.4 3.4 4 0 .5.6 1 1.3 1 .6 0 .3.8-.8 1.6l-2 1.6 2-.6c2-.5 6.5 2.3 6.5 4.2 0 1.3-3.4 2.6-3.8 1.4-1.2-3.6-5-5.2-12.8-5.5-.6 0-1-1-.6-2 .3-1 0-1.7-1.2-1.7-1.7 0-2.2-1.5-.7-2.4.4-.4 2 .8 3.4 2.4 2 2.5 3 3 4.4 2 1-.5 2.3-.6 2.7-.2.5.4.5 0 0-.6-.4-.8-1.2-1-2.4-.3s-2.2 0-4.3-2.5c-1.5-2-2.3-3.6-1.8-4 .4-.3 1.8.7 3 2 1 1.6 2 2.4 2 2 0-.5-1-2.3-2.5-4-1.8-2.4-2-3.5-1.2-4 .6-.2.2-.2-1 0-1.6.5-2.5 0-3.4-1.7-1-2-1-2 0-1 2 1.8 3.5 1.5 2-.5-1.4-1.5-1.3-1.5.8-.2 1.2 1 2.5 2.5 2.8 3.7zm9.2-1.7c.7 1 1 2 .4 2-1 0-3.2-2.2-3.2-3.2 0-1.5 1.5-.8 2.8 1.2zm-101.2.3c.4.4 1.4 0 2.3-.5.8-.7.4 0-1 1.5-1.3 1.5-2.6 2.4-3 2-.2-.2.2-.8 1-1.2.7-.5.8-1 .2-1.4-.6-.3-1.3-.2-1.7.4-.7 1-2.5.4-2.5-1 0-.8 3.7-.7 4.6.3zm58.4 1.2c-.8 1-.7 1.4.2 1.7.7.3-.2.7-2 1-3.2.4-3.2.4-1.2-1.4 1-1 2-2.3 2-3 0-.5.5-.6 1-.3.8.5.8 1 0 2zm-94-1c0 .2-.4.7-1 1-.5.3-1 0-1-.4 0-.5.5-1 1-1 .6 0 1 .2 1 .4zm30.3 1c.4 1 0 1.2-.8.8-.8-.3-1.2-1-1-1.4.8-1.3 1.2-1.2 1.8.4zm58.7 0s-.7.6-1.6 1c-.8.2-1.2 0-1-.5.7-1 2.6-1.4 2.6-.6zm84.5 1c1 0 2 .8 2.3 1.8.3 1.6 0 1.8-2 1.2-2.2-.8-4.8-2.8-4.8-4 0-.3.6-.3 1.3.2.6.4 2 .8 3.2.8zm-173 .7c-.6.8-.3 1 .8.5 1-.3 2.4-.4 3.2 0 1.3.4 1.2 1-.6 2.4-1.3 1.2-3 2-3.7 2-.7 0-1.3.4-1.3 1 0 .5.6 1 1.2 1 2.4 0-3 3-5.8 3.2-2 .2-2.8 0-2.6-1 0-.8-.2-1-.8-.7-.8.5-.8 1 0 2 1 1.2.4 2.5-1.3 2.5-.6 0-.7-.3-.4-.7.4-.3.2-1.2-.5-2-1-1-.6-1.7 1.3-3 1.4-1 3.5-2.7 4.6-3.8 2-1.8 5.4-4.3 6.2-4.4.2 0 0 .5-.4 1.2zm8.2-.6c-.3.3-1.2.4-2 0-.7-.2-.4-.5.7-.5 1 0 1.7.3 1.3.6zm10.8.4c-.3.5-1.3 1-2 1-1 0-1.3-.5-1-1 .3-.6 1.3-1 2-1 1 0 1.3.4 1 1zm122 4c.2.8.8 2.2 1.2 3 .3.8-1 0-2.8-2-2-2-3.4-3.8-3.2-4.2.4-1 4 1.3 4.6 3.2zm-110.6-.3c-.7.7-1.7 1-2.2 1-.6 0-1.3.4-1.6 1.2-.3.8 0 1 .8.5 1-.5 1-.4.6.4-.4.5-1 .8-1.6.5-.4-.3-1 .6-1.4 2C160 76 157 77 157 75c0-.6.4-1 1-.5.4.3 1.4-1.2 2-3.2 1.7-5 1.5-5 4.4-5 2 0 2.3.4 1.5 1.4zm-43-.3c0 .2-.7.7-1.6 1-.8.3-1.2.2-1-.4.7-1 2.6-1.4 2.6-.6zm99 .6c-2 1.3-3.3 1.3-2.5 0 .3-.6 1.4-1 2.3-1 1.5 0 1.5.2.2 1zm74 2.2c0 .5-1 .3-2-.4s-2-1.6-2-2c0-.5 1-.3 2 .4s2 1.6 2 2zm-140.5 5.3c-1.5 3.7-3 6-4 6-.7-.2-1 .3-.8 1 .3 1 0 1.5-.6 1.5-.5 0-.7.8-.4 1.7.4 1.3.3 1.4-.3.5-.7-1-1.6-.3-3.6 2.5-1.5 2-2.7 3.3-2.7 2.7 0-.7.7-1.7 1.5-2.4 1-.7 1.3-1.5 1-1.8-.3-.3.4-1.2 1.6-2 1.2-.8 2-2 1.6-2.8-.3-.8 0-1.4.5-1.4.6 0 1.4-.8 1.8-1.8 1.3-3 6.7-11.2 7-10.5 0 .5-1 3.5-2.3 6.8zm19.5-7.2c0 .2-1.2 1.4-2.7 2.8-2 2-2.4 2-1.3.5 1.8-2.4 4-4.2 4-3.2zm16 2c-1 1-1 .8-.4-.6.3-1 1-1.5 1.2-1.2.3.3 0 1-.7 1.8zm66-1.3c0 .5-.4 1-1 1-.5 0-1-.5-1-1 0-.6.5-1 1-1 .6 0 1 .4 1 1zm-117.5 1c.3.6 0 .7-1 .4-1.7-.7-2-1.4-.6-1.4.5 0 1.2.4 1.5 1zm110.2 1c.3 1 1 1.7 1.6 1.3.7-.4.8 0 .4 1-.5 1.3-.3 1.7.5 1.4 1.7-.6 4.8 1 4.8 2.5 0 1-.3 1-1.2 0-1.8-1.8-2.6-1.4-2.4 1.2 0 1.3.4 2.2.8 2 .4-.3 1 .4 1.7 1.3.4 1 1.2 1.4 1.6 1 .4-.4 1.6 0 2.6 1s1.8 1.2 1.8.7.7.2 1.6 1.4c1.3 1.8 2 2 3 1 1.2-.8 2-.7 3.7 1l4.6 4c1.3 1.2 3 2.2 3.6 2.2.7 0 1.4.4 1.6.8.2.5 2 2 4.3 3.5 2.2 1.5 3.5 2.7 3 2.7-.6 0-2.3-1-4-2l-5-3.2c-1-.7-3.7-2.8-5.8-4.6-2-1.8-4.4-3-5-3-1.8.7-1.5 3.3.3 3.3 2 0 14.3 12 13.4 12.8-1 1-9.2-5.4-9.8-8-.4-1.2-1.3-2.3-2-2.3-2 0-2 .5 0 2.4.8 1 2 3 2.5 4.8l1 3.3-4.3-4.4c-2.4-2.4-4.7-4.2-5.2-4-.4 0-1.2-.4-1.7-1.2-.7-1-1-1-1.4 0-.3.6-1.5 0-3.2-1.6-3.5-3.5-5.2-7-5.5-11 0-1.6-.5-2.8-1-2.5-.4.2-.8-.2-.8-1-.6-4.4-.8-5.5-2-7.5-.7-1.6-.8-2.2 0-2.2.7 0 1.4 1 1.7 2zm-61.3.8c.3.5-.7 2.3-2.2 4-2.7 3-4 8-2 6.6.5-.3.7-1.2.4-2-.3-.8 0-1.4 1-1.4 1.7 0 1.8 1 0 3.2-.7 1-2.3 1.8-3.5 1.8-1 0-2 .5-2 1 0 .6-.5.8-1.2.4-.8-.5-1-.2-.5 1 .5 1.3.3 1.7-.7 1.3-1-.4-1.3 0-1 .7.6 1.5-2.3 4.2-3.3 3.2-.4-.4 0-1.2.7-1.7 1.3-1 1.3-1 0-.7-.8.2-1.5 1.2-1.5 2.3 0 1-.7 3-1.5 4-1 2-1.7 2-3 1s-1.3-1 0 .7c1.2 1.7 1.6 1.5 5.2-2.5 2-2.3 3.8-3.8 3.8-3.3 0 .6.8-.2 1.8-1.6 1-1.5 2.3-2.5 3-2.3.6.3 1.2 0 1.2-.7 0-.6.4-1 1-.6.3.3.5 1.8.2 3.3-.5 2.4-.6 2.5-1.2.8-.5-1.2-.7.2-.5 3.3 0 3 0 5.5-.6 5.8-.6.3-1.5 1.4-2 2.6-1 1.6-1 2 0 1.3 1-.6 1-.2 0 1.6-1.6 3-2.5 4-1.7 1.8.3-1 .2-2-.3-2.3-1.3-.8-1.8.7-1 3s-2.5 6-4.4 4.8c-.6-.3-.6 0 0 .7 1 1 1 1.8.3 3-.7.8 1-.7 3.4-3.4 2.6-2.7 4.4-5 4.2-5.4-.3-.2.2-1 1-2 .8-.7 1.2-1.7 1-2.2-.4-.4 0-2.2.7-3.8l1.3-3 1 3.3c.6 2 .7 3.2.3 3-1-.6-2.3 2.5-1.5 3.3.3.3.5 0 .5-.6 0-.7.5-1.2 1-1.2.7 0 1 .7.6 1.7s.8 0 2.6-1.8c3-3.3 3.3-4 3.3-10.2 0-3.7.2-6.4.5-6 .3.2 1-1.8 1.7-4.5 1.2-4.6 1.2-4.4.6 3.7-.3 4.7-.6 10.6-.6 13.2 0 2.6-.4 4.5-1 4.2-.3-.3-.4.2 0 1 .2 1 0 3-.6 4.6-.4 1.7-.5 2.8 0 2.5.5-.3 0 2.5-1 6.2s-2 7-2 7.5-.4.7-.8.6c-.5-.2-3 2-5.6 4.6-3.8 4-5 4.6-5.8 3.5-.8-1.2-1-1-.4.3.4 1.2 0 2-1.7 2.7-1.6.6-1.7 1-.5 1 1.7 0 4.5-2 11-8.4 3.8-3.8 5.6-4.2 4.4-1-.3.8-1 1.2-1.7.8-1-.4-1-.3-.6.4s0 1.2-1 1.2c-1.4 0-1.4.2-.3 1.6 1.2 1.3 1.5 1.3 2 .3 0-1 1-2.6 2-4 1.2-1.2 2-3 2-4 0-1.3-.2-1.3-1 0-.6 1-1 1-1 .3 0-1.6 3.2-8.3 4-8.3.3 0 .5-2 .5-4.4 0-2.4.3-4.2.8-4 .6.5 1-.8 1-6.4.2-1 .8-2.3 1.5-3 .6-.7 1.2-2 1.2-3 0-1.5.2-1.5 1-.2 1 1 1 .6.6-2-.5-3.4-.5-3.4.8-1l1.4 2.4 1-4c.7-2 2.4-5.7 3.8-8 1.4-2 2.3-3 2-2-1 2.5-1 2.4-.6 6 .2 2.8.3 2.7 1.4-1.4l1.2-4.4 1.3 3.2c1.4 3.6 2.2 4 4 1.7 1.5-1.8 4 .2 3.2 2.5-.5 1.2-.3 1.3 1 .3 1-.8 1.3-2.4 1-5-.5-3.4-.6-3.5-1.2-1.3-.6 2.5-.6 2.5-1.2.2-1-4 1-8.4 2.5-5 .3.7.6.4.7-.7v-2l1 2c.4 1 .4 3 0 4.5-.4 1.4 0 3.6.7 5s1.3 2 1.3 1.5c0-.6.5-.3 1 .5 1 1.2 1 1.2.6-.3-1.6-5-1.8-7-.6-9.2 1.4-2.5 4.3-2.3 3.3.2-.4 1-.2 1.4.5 1 .7-.5 2 .5 3.2 2.5 1.8 3 2 3 2 1 0-1.3.6-3 1.4-3.8 1.3-1.2 1.6-.6 2.7 4.4 1.8 8 2.8 9.5 2.2 3.3-.3-3.3 0-5 .7-5 .5 0 1-.5 1-1.2 0-.6-.3-.8-.7-.4-.6.6-3-7-3.3-9.8 0-.5 1.6 1.3 3.5 4 2 2.7 3.5 5.6 3.5 6.4 0 .8.5 2.2 1 3 1 1 1 .6.5-2-.4-2.4-.3-3 .3-2 .6.8 1.3 3.4 1.7 5.8.5 3 1.5 4.8 3 5.8 1.4 1 2.3 2 2 2.4-.3.5 0 1.2.7 1.7 2 1.2 4 5.2 3.3 6.3-.4.6-.2 1 .3 1s1.2.8 1.5 1.7c.2 1 .8 2.7 1.2 3.8l.7 2-1.3-2c-.8-1-2.5-3-4-4.5-1.3-1.4-3-3.7-4-5.3-1.3-2.7-3-3.6-3-1.7 0 .6.7 2.2 1.6 3.5 1 1.4 1.3 2.5 1 2.5-1.3 0 4.6 6.5 10.3 11.4 3 2.5 4 3 10 3 5.8 0 6 0 1.3.3-6 .4-6.6 1.4-2.8 4 1.4.8 2.3 1.8 2 2.2 0 .2.3 1 1 1.8 1 .7 1.5 1 1.5.5 0-.4 2 2 4.5 5.5 2.5 3.4 4.5 6.7 4.5 7.2 0 .6.5.8 1 .5.7-.4 1 .2.5 1.8-.4 1.4-.2 2.8.4 3 .5.5 1 3.2 1 6 .2 3.6.4 4.5 1 2.8l.5-2.3 1.3 2.7c.6 1.5 1.2 4.4 1.2 6.6 0 2 .5 4.2 1 4.5.6.3 1 0 1-1 0-.8.5-1.5 1-1.5 1.3 0 1.3 8 0 10-.8 1.3-1 1.2-1-.3 0-1-.4-1.5-1-1.2-.5.3-1 2-1 3.6 0 1.7-.5 3-1 3-1 0-1-1.7-.7-5.5.3-3 .4-5.5.2-5.5-.6 0-4.5 7.2-4.5 8.4 0 2.4-5.5 8.5-7.7 8.6-1.2 0-2.4.4-2.8 1-.3.5-4.3 1-8.8.8-9.6-.2-18 .7-20.6 2.2-2.5 1.3-4.3 1.3-3.4 0 1-1.6-3.7-.2-5 1.4-1.3 1.4-5.8 3.2-10.3 4-2 .5-3.5 1.5-3.8 2.7-.4 1-1 2-1.5 2-1 0 .5 7 2 8.3.7.8 1 .8 1 0 0-1.3 4.3-2.8 10.5-4 2.2-.2 4.7-1 5.5-1.8 2-1.6 5-2.6 5-1.7 0 1-8.7 5.2-11 5.2-2 0-3.6 1.7-2.6 2.7.8.8 5.3-.5 6.8-2 2.2-2.2 6-3 6.8-1.6.7 1 1 1 2.4 0 1-.7 1.6-.8 1.6-.2 0 .5 1.3 1.5 3 2 2.2.8 3 .7 4-.4.7-.8 2-1.4 3.2-1.4 1.7 0 2 .5 1.4 2.7l-.6 2.8 1.6-3 2-3.3c0-.2 1 .4 2.3 1.4 1 1 3 2 4 2 3 .5 6.8 3.5 7.6 5.7.6 2 2 1.5 2-.5 0-.6 1.5-1.7 3.4-2.4 2-.7 3-1.3 2.7-1.3-.5 0-.2-.7.7-1.5.8-.8 3.4-1.6 5.8-1.6 2.4-.2 3.5-.4 2.6-.7-1-.2-1.8-1-1.8-1.4 0-.7.4-1 1-.5.4.3 1 0 1.5-.5 1-1.6 3.5-1.2 3.5.6 0 .8-.4 1.2-1 1-.5-.4-.7 0-.4.7.3 1-.7 2-2.8 3-2.2 1-2.7 1.7-1.4 1.7 1.2 0 1.6.5 1.2 1.5-.8 2 .3 2 2.2-.5 1.6-2 1.7-1.7 1.7 6 0 5.8.4 8.5 1.3 8.8.6.2 1.2 1 1.2 1.8s.4 1.4 1 1.4c2 0 3.2 8.5 2.5 18l-.7 11c0 .8-.5 2-1 2.6-.4.6-.6 4.3-.5 8.2.2 4.5 0 7-.6 6.5-.6-.4-.8 0-.4 1 1.7 4.5 1.8 6.7.3 9-1.2 1.7-1.5 3.6-1 6.4.5 3.5.3 4-1.5 4.6-1.6.4-2 1.3-2 4.6 0 2.2-.4 4-.8 4s-1.6 2.3-2.6 5c-1.3 3.7-2.3 5-3.8 5s-1.8.5-1.3 2c.5 1.4.2 2-1 2-.8 0-1.5.6-1.5 1.4 0 1.3-4 4.6-5.6 4.6-.3 0-.4-1-.2-2.5.3-1.4.4-2.5.2-2.5l-1.8-.6c-1-.4-1.6 0-1.6 1 0 .8-.5 1.8-1 2-.7.5-1-.2-.6-2 .4-2.3.3-2-.7.6-1.2 3.6-3.7 5.2-3.7 2.5 0-.8-.7-1.5-1.5-1.5-1.7 0-2 1.6-.5 2.5.6.3 1 1 1 1.8s-.3.8-1.2 0c-1.8-2-2.8-1.6-3 1v2.2l-1.5-2.2c-2-3-4-3-2 .2 1 1.3 1.7 3 1.6 3.7 0 1-.3 1-.7 0-.3-.8-1.4-2.3-2.4-3.3-2-2-2-2-3 0-.5 1-1 2.7-1 3.8 0 1-.7 2.5-1.5 3.2-.8.7-1.5 2.3-1.5 3.6 0 1.7-.4 2.2-1.6 1.7-1.4-.5-1.5-.3-.4 1.6 1.4 2.7.8 3.5-1.8 2-2.5-1.2-4.2.4-4.2 4.3 0 1.5-.4 2.6-1 2.3-.4-.4-1 0-1.3.6-.3.7-.6.2-.7-1.2-.2-2.5-.2-2.5-1.4.4-1 2-1.5 2.5-2 1.5-.2-1-.5-.7-.5.7 0 2.7-2 4-2 1.6 0-1-.7-.4-1.6 1.7-1.2 3-1.4 3-1 .8.3-2.4 0-2.6-1.5-1.7-1.2.6-2 2.3-2 3.8-.2 1.7-.4 2-.7 1-.4-1.4-.8-1.6-2.4-.8-1 .6-2 2-2 3 0 2.5-2.7 3.3-4 1.2-1-1.4-1-1.3-.7.8.2 1.4.2 2 0 1-.4-1-.6-1-1.4 0-.8 1-1 .5-.5-1.5.3-1.7.2-2.4 0-1.7-.4.6-1 1-1.6.6-.6-.3-1 0-1 .6s-.6 1.7-1.2 2.4c-1 1-1.5 1-2.5-.3s-1.2-1.2-1.3 1v2.5l-1.2-2.3-1.2-2.3-1.2 2.2c-1.2 2.2-1.2 2.2-2-1.3-.3-2.2-1-3.7-2-3.7-1.2 0-1.2.4 0 2.3 1.2 1.7 1.3 2.5.4 3-.7.4-.8.3-.4-.4 1-1.6-.7-1.5-2.3 0-1 1-1.2 1-.8-.8.4-1.7 0-2-1.8-1.6-1.8.3-2.4 1-2.5 3 0 2-.5 1.3-1.4-2-1.3-4.8-3.4-8.4-2.3-4 .3 1.2 0 2.2-.4 2.2-.6 0-1-.6-1-1.4 0-.8-.5-1.8-1-2-.7-.5-1 .2-.5 2 .5 2 0 1.3-1.8-2-2.2-4.4-2.6-4.7-3.5-3-1 1.4-1.2 1.5-1.2.4 0-1.3 0-1.3-1 0-.8 1.3-1 1.3-1-.2 0-2.4-2.2-2.7-4.5-.6-2.2 2-3.5.7-1.5-1.7 1-1 .8-2-.5-4.5-1-1.7-2-2.8-2.5-2.5-.6.4-1 0-1-.5 0-.7-.7-.4-1.6.5-2 2-3.2 1.2-1.6-.8 1-1 .8-1.3-.6-1.2-1 0-2.3.4-3 .8-.5.4-1.3.3-1.7-.3-1-1.8-2.5-1-2.6 1.2-.2 1.7-.4 1.8-.7.6-.2-1 .3-2.8 1-4 2-2.5 2.2-4.2.7-3.3-1.6 1-1.2-.7.7-2.7 1-1 1-1.8.5-1.8-.6 0-1-.6-.6-1.4 1-2.2-1.4-3-2.5-.7-1.5 3-1 4 .5 1 2-3.3 2-1.7 0 2-.7 1.4-1.2 3.8-1 5 .3 1.4.3 2 0 1.2-.4-.6-1.2-1-1.8-.5-.7.4-.8 0-.3-1.3 1.2-2.8 1.2-4 0-4.2-.4 0-1 .8-1.2 2.2-.2 1.3-1 2.7-1.7 3-1 .3-1.2 0-.8-1.2.5-1.4.3-1.4-1.6.3-1.8 1.6-2.3 1.7-3 .5-.8-1.2-1.3-1.3-3-.3-1.6 1-1.7 1-1.2-1 .4-1.7.2-2-1.6-1.5-1.2.4-2.6 0-3.3-.8-.7-.8-2-1.4-2.6-1.4-.7 0-2.8-1.6-4.6-3.5l-5.8-6.3c-3.8-4-10-12.8-10-14 0-.7-.4-1.2-1-1.2-.5 0-1-.5-1-1 0-.7-.7-2.6-1.5-4.3-4.7-10.3-9-28.2-10-41.2l-1-9.6c-.2-2.7 0-5 .3-5.4 1-1 .2-8-1-8.7-.6-.5-1-2.5-.5-4.8.3-2.3 0-4.2-.4-4.4-1.4-.4 1-15 2.3-16 2-1.2 1.5-7.7-.5-8.4-2-.6-2.3-2-.7-3 .8-.4.6-1.4-.5-3-1.8-2.8-1.7-9.5 0-10 .8-.3 2.5.6 4 2 1.6 1.5 2.5 2.6 2 2.6-.3 0 0 1 .5 2 .6 1.2 2 2 3.5 2 1.4 0 2.5.4 2.5 1 0 .5.4 1 1 1 .5 0 .6-.8.3-1.8-.6-1.4-.4-1.5.8-.5 1 .7 2 .8 3 .4.6-.4 2-.5 3-.3 1 .3 2 0 2-.6 0-.5 1-1 2.3-1 2 0 2 .2.2 1-1 .5-1.5 1-.8 1 2.3 0 4.3-1.3 4.3-3 0-1 2.2-3 5.3-5 8.2-5.3 10-6 12-5.7 1.6.3 1.3.5-.7.6-3 0-3 1.2.2 1.6 3.5.5 13.2 3.7 12.7 4.3-1 1-3.5.8-3-.3.4-.7 0-.5-.7.3s-2.6 1.5-4.3 1.4c-1.6 0-3.4.3-4 .6-.5.4-3.6 1.3-6.7 2-3.4.8-5.5 1.7-5 2.3.3.6 0 .8-1 .4-1-.3-1.5 0-1.4 1 0 1-1.4 2.3-3 3.2-4.2 2-4.3 3.4-.4 2.6 1.8-.3 3-.2 2.5.3-.3.4.5.7 1.7.4l5.7-1c1.8-.2 3.6-.7 4-1.2.7-1 5-3.4 5.4-3l1 3.2c.7 1.6 1.7 3 2.4 3.4.7.2 1-.2.6-1-.4-1.3.3-1.5 4-1 3.8.4 4.6.2 4.6-1.2 0-1.8 1.5-2.2 2.5-.6 1 1.7 2.5 1 2.5-1 0-3 3-2.5 7.2 1 3.4 2.8 6.7 3.4 8.5 1.7.3-.4-.2-1.4-1.3-2.2-2-1.6-2.4-1.4 5.8-2 2 0 4.8-3.4 4-5 0-.8-2.6-2.2-5.3-3-4-1.5-5-2.4-5-4 0-2-.7-2.4-5.2-3-3-.6-6-1-6.8-1-2.8 0-6-1.6-5.5-2.6.4-.6-.8-1-2.5-1-2 0-3-.4-2.5-1 .4-.6 0-1.8-.6-2.7-1.3-1.4-1-1.5 1.7-1 1.8.5 3.4.4 3.8-.2.4-.6-.4-1-1.8-1s-3-.7-3.7-1.5c-.7-.8-1.7-1.5-2.3-1.5-1.2 0-3.6-3-3.7-4.6 0-.7.7-1.5 1.6-1.8 1.2-.4 1.5-.2 1 1-.3.7 0 1.6.4 2 1.3.7 3.7-3.5 4.6-8 .4-2.6 1-3.4 1.5-2.4.7.8 1 1 1 0 0-.5-.7-1.7-1.5-2.5-1.3-1.3-1.2-1.8.5-4 1.5-1.8 1.8-3.3 1.4-5.6-.7-3.3-1-3.5-3.6-1.6-1 .8-2 3-2.2 6-.5 5.3-2.4 9.5-3.6 7.6-.5-.8-1-.4-1.2 1.2l-1.3 4.2c-.6 1.5-.5 1.7.5 1 1-.4 1-.3.6.5-1 1.6-2 .5-3.6-4-1-2.8-1.6-3.7-2.2-2.8-.5 1-.8.6-.8-1 0-1.2.5-2.2 1-2.2.6 0 1-.7 1-1.6 0-.8.7-2.2 1.5-3 1-1 1.3-2 1-2.2-.3-.4-1 0-1.6.8-1 1-1 .5-.6-2 1-6.6 1.5-8 2.6-9.7 1-1.5 1-1.3.5 1.2-.4 2.2-.3 2.6.5 1.5.5-.8 1-2.4 1-3.4s.3-1.6.7-1.3c.3.4 1.2 0 2-1 .7-1 1.2-1.4 1-.8l.7 4.8c.7 3 1 3.5 2.2 2.6.7-.7 2-.8 2.5-.4 1 .4 1 .3.6-.4s0-1.2 1-1.2c1.2 0 1.3-.4.4-2-1-1.7-1.8-2-3.8-1.6l-2.7.6 2.7-1.5c2-1 2.7-2.2 2.6-4-.2-2-.7-2.4-2-2-1 .4-1.8 0-1.8-.7 0-1.5-4.3 3-5.3 5.5-.4 1-1 1.6-1.6 1.3-1-.8-6 9-6.3 13.4-.3 3-.4 2.7-.5-1.2 0-2.6.2-5 .7-5.2.4-.3 1-1.5 1.3-2.6.3-1 0-1.8-.4-1.4-.6.3-1 1.3-1 2.2 0 1.5-.2 1.5-1 .2-1-1.3-1-1.3-1 0 .3.8-.2 3.3-.8 5.5-.7 2.2-1.2 5.3-1.2 7 0 2.3-.3 2.7-1 1.5-.8-1.2-1-1-1 1-.2 2-.3 2.2-.7.5-.7-3-2.3-4.2-2.4-2-.2 1 0 2.8 0 4 .3 2.6-3 10.6-4 10-.6-.4-1 1-1 3s-.4 3.5-1 3.5c-1 0 0-7.4 1.2-7.8.4-.2.8-1.7.8-3.3 0-1.8.5-4 1-5.2 1-1.5 1-2.3 0-3.2-.8-.8-1-.6-.4 1 .7 1.8.7 1.8-1.3 0-1-.8-2.3-1.3-2.6-1-.4.4-.7-.6-.7-2.2 0-2.8-.2-2.7-3 2-2.5 4.3-2.8 4.6-3.3 2.5-1-3.6-2-1.5-2 3.3l.2 4.2-1.5-3.5-1.4-3.5.7 4.5c.5 4.3.5 4.4-1 2.5-1.3-1.4-1.7-1.5-1.5-.5.3 2.5-2.3 11.8-3.7 13-.8.7-2 .7-3.6 0-1.4-.4-2.2-1-1.7-1 .4 0-.2-1-1.3-2-1.8-1.8-2-3-1.8-9.4.2-5.2.7-7.2 1.5-7 .7.4 1-.2 1-1.3 0-2.7 1.3-7.4 2-7 .5.3 1-.6 1-2 0-1.3 1-3.3 2-4.2 1-1 3.3-3.3 5-5.3 4.7-5.3 6.8-4 6.3 3.5 0 1.6.3 2.8 1 2.8.5 0 1-.5 1-1 0-.7 1-1 2-.7 1 .3 2 .2 1.8-.2-.2-2 .3-5 1-5 2 .4 2.3 0 1.2-1.5-1-1.2-1-1.6.2-2 1-.4 1.3-1.7 1-4-.2-1.8 0-3.5.6-4 .6-.2.8.3.5 1.3-.2 1 0 3 .7 4.7 1 2.3 1.3 2.6 2 1.5.6-.8 1-2.6 1-4 .2-1.7.4-2 .7-.8.4 1.6.6 1.6 2 .4.7-.8 1.3-2 1.3-2.8 0-.8 1-3.3 2-5.6 2.4-5 2.4-5.2.5-5.2-1.6 0-2-1.8-.7-3.8.7-1 1.3-.8 2.7.8 2.2 2.4 3 2.5 4 .4.5-1.4.3-1.5-1-.3-1.5 1.2-1.6 1-1.3-.5 0-1-.3-2-1-2-.6 0-2-1-2.7-2.2-1.5-2.2-4.5-2.2-4.5 0 0 1-9 14.7-9.6 14.7-.5 0 1.3-3.3 5.6-10.3 1.7-2.7 2.8-5.3 2.4-5.8-.3-.6 0-1 .4-.8.5.2 2.5-1.4 4.5-3.4 3.2-3.4 3.6-3.6 5-2 1 1.2 1 1.4 0 .8-1-.6-1.2 0-.7 2 .4 1.7.3 2.5-.3 2-.6-.3-1 .5-1 2 0 2.5 0 2.6 1.2 1 1.3-1.7 1.4-1.6 2.5.4.6 1.2 1.4 2 1.7 1.6.4-.3 1.3 0 2.2.7.8.7.6.2-.5-1.4-1-1.6-2.4-2.5-3-2.2-.4.3-.5-.2-.2-1.2.4-1 .7-2.2.7-2.7 0-.7.4-1 .8-.6.5.3.8-1 .7-3 0-1.8.3-3 1-2.7.4.4.6 0 .3-1-.4-.7-.2-2 .3-2.8 1-1.2 1-1.2.8.2-.2 1 0 1.6.7 1.5.5 0 1-1 1-1.7 0-.8 1.6-3 3.3-5 1.8-1.7 3.2-4 3.2-4.6 0-.8 1.6-3 3.5-5 2-2 3.5-3.2 3.5-2.8 0 1-6 11.8-7.6 13.5-.8 1-1.4 2.4-1.4 3.3 0 2.2-2 3.2-2 1 0-1.6-.2-1.6-1 .2-.5 1-1 3.3-1 4.8 0 1.6-1 4.2-2 6-2.4 3-2 4.8.5 2.7.8-.7 1.2-1.7.8-2.3-.3-.5 0-.7.4-.4.6.4 1 0 1-1s.3-1.7 1-1.6c.6.2 2.3-1 3.6-2.7 1.4-1.6 2.7-2.6 3-2.3.4.3-.6 2-2.3 3.4-5 5-6.3 7.6-5 10 1.7 3 3.4 2 4.2-2.8.8-5 1.6-6.4 3-5.7.4.3.5 0 .2-.8s0-1.8.5-2.2c.5-.3.8-1 .4-1.6-1-2-1.5-9-.4-9 .5 0 1-.8 1-1.8s1-2.8 2-4.2c1-1.4 2-3 2-3.6 0-1.5 3-4 3-2.6 0 .6-.4 1.3-1 1.7-.5.3-.6 1.3-.3 2.2.6 1.5.7 1.4 1.4-.3.7-1.5 1-1.3 1 1v3l2-3.4c1.3-2 2.6-3.7 3-3.8.6-.2 1-1 1-1.8s.7-1.4 1.5-1.4 1.5-.5 1.5-1c0-.6.5-.8 1.2-.4.8.5 1 .2.5-1-.6-1.6.7-2.3 1.7-.8zm104.4 3.4c3.3 4.3 3.5 5.5.6 4.4-1-.3-1.4-1.2-1-2 .2-.7-.7-2-2-3s-2.4-2.3-2.4-2.7c0-2 1.7-.8 4.8 3.2zm5.3-1.5c1.4 1.6 1.3 1.7-.2.4-1-.6-1.8-1.4-1.8-1.6 0-.8.8-.3 2 1.3zm7-.7c0 .5-.2 1-.4 1-.3 0-.8-.5-1-1-.4-.6-.2-1 .3-1s1 .4 1 1zm-191.2 3c-.7.6-1.3 1.5-1.3 2.2 0 .7-1.5 1.5-3.2 2l-3.3.5 2.3-2.3c1.2-1.3 2.8-2.4 3.5-2.4.7 0 1-.4.7-1-.3-.6 0-.7 1-.3 1.3.5 1.4.7.3 1.4zm23-.5c0 .8-.3 1.3-.6 1-.3-.2-1.4.2-2.6 1-1 .8-2.5 1.5-3 1.5-.8 0 3.5-3.5 6-5v1.5zm32.4.7c-.6.6-1.5.8-2 .4-.3-.4 0-1 .8-1.6 2-1.2 2.7-.3 1.2 1.2zm27.8-.7c-.7 1-1.5 1.3-2 1-.2-.3.2-1 1-1.5 2-1.4 2.4-1.2 1 .5zm82.4 0c1 2.5.7 2.8-1 1-1.6-1.6-1.8-2.5-.5-2.5.4 0 1 .7 1.4 1.6zM228 77.4c-1 1-1 .8-.4-.6.3-1 1-1.5 1.2-1.2.3.3 0 1-.7 1.8zM122.6 77c.3.4.2 1-.3 1.4-.5.3-1 0-1-1 0-1.6.4-1.8 1.3-.5zM217 80c-1.4 4.6-3 6-2.6 2 .5-3.5 1.3-5.2 2.6-5.2.5 0 .5 1.4 0 3.2zm50.6.5c-.5 1-.2 1.3 1 1 .8-.4 1.3-.3 1 .2-1.2 1.7 6.3.8 8-1 2.3-2.7 3.4-2.5 3.4.4 0 1.3-.6 2.4-1.2 2.3-5.2-.2-6.3 1.3-2.3 3 2 1 2.3 1 2-.5-.6-1.4-.4-1.4 1 .2.8 1 2.5 2 3.7 2.3 1.2.2 2.5.8 2.8 1.4.4.6 1.4.8 2.3.5 1-.4 2 0 3 1.4.6 1 1.8 2 2.5 2s1 .5.7 1c-.4.7-1.4 1-2.4.5-.8-.3 0 .8 2 2.5l3.5 3.2-4-2.3c-2.2-1.3-4.5-3-5-3.7-.7-.7-1.6-1.3-2-1.3-.6 0-2.8-1-5-2s-4.6-2-5.2-2c-.7 0-1.8-1-2.5-2s-2-2-3-2-3.5-1.6-5.5-3.5c-2-2-3-3.5-2.4-3.5.6 0 .8-.5.4-1-.4-.8 0-.8 1.6 0 1.3.7 2 1.7 1.6 2.7zm-137.6.7c1.3 1.7 1.3 2 0 1.4-.8-.2-2.3.4-3.4 1.4-1 1-3 1.8-4.5 1.8-1.3 0-3.2.5-4 1-1.3.8-1.2 1 .3 1 2.3 0 2.2 1.2-.3 2.8-1.2.7-2 .8-2 .2 0-2.7-3.6-1-20.5 9.6l-4 2.6 4-3.6c2.2-2 4.5-3.5 5.2-3.6.7 0 1-.6.7-1.4-.3-.8 0-1.7.5-2 .5-.4 1-.2 1 .4 0 .6.5.8 1 .5.6-.4.8-1 .4-1.6-.3-.7.3-1.4 1.5-1.7 1-.3 2-1 2-1.5 0-1 8.8-5 11.6-5.3 1.2 0 3-1 4-2 1-.8 2.3-1.4 3-1 .8.2 1.4 0 1.4-.7 0-.6 0-1 .3-.7 0 .3 1 1.4 1.7 2.4zm133.2.7c5.5 4.5 4 5-1.8.6-2.6-2-4-3.6-3.4-3.6.6 0 3 1.4 5.2 3zm-75 1c-.8 1.6-2 3-2.5 3-1 0 0-1.5 2.2-4.2s2.3-2.2.3 1.2zm16.3 1.4c0 2.4-.3 3.2-1.2 3-1.4-.6-1.7-3.2-.7-6 1-2.2 1.7-1 2 3zM331 84c0 .5-1 .3-2.4-.3-1.6-.8-2-1.4-1.3-2 1.2-.6 3.7 1 3.7 2.3zm-232.5.2c-.6 2-.5 2 .6 1 .8-.6 1.8-1.2 2.4-1.2.5 0-1.2 2-3.7 4.6C95 91 93 93.6 93 94c0 .6-.6 1-1.3 1-.8 0-2.4 1-3.7 2.5-2.6 2.8-4.5 3.3-3.6 1 .3-1 .2-1.3-.5-1-.6.4-.8 1.6-.4 2.7.4 1.4.2 1.8-.5 1.4-1-.7-1.5.7-1 2.8 0 .5-.6.4-1.4-.3-1.4-1-1.4-1.5.5-4 1.2-1.7 3.4-3.7 5-4.5 1.5-.8 3-2.3 3.3-3.4.3-1 1.7-2.4 3.2-3 1.7-.6 2.4-1.4 2-2.2-.6-.8-.2-.7 1 .2 1.6 1.3 1.7 1.2 1.3-.5-.2-1 0-2.5.7-3.2 1.5-1.8 1.7-1.6 1 1zm93.5 1.3c0 .5-.5.3-1-.5-1-1.2-1-1-.7.7.3 1.2.2 2.3-.2 2.5-.3.2-1.3 2-2.2 4.2l-1.5 4V92c0-3.3.2-4 .8-2.5.8 2 1 2 1-.2 0-3.5 2.2-7.6 3.2-6 .4.6.8 1.6.8 2.2zm105-.8c.6 1.4 1 3 .6 3.7-.2.6-.5.3-.5-.7s-.4-1.5-1.2-1c-.7.4-1 0-.5-1 .3-.8 0-2-.6-2.6-.8-.7-.8-1 0-1s1.8 1.2 2.4 2.7zm-153.5 2c-1.4 2-2.5 4.4-2.5 5.3 0 1-1 2.8-2 4l-2 2.5.2-2.5c.2-1.5 1-2.4 1.7-2.2 1 .2 1 0 .2-1-1-1.2-1-1.8.3-2.8.8-.7 1.5-1.7 1.5-2.2 0-.8 3.8-4.6 4.7-4.8l-2.2 3.6zM304.3 90c1 1.3 1.2 2 .4 3-.7.6-1.7-.4-3.4-3.5-2.8-5.3-3-7-.3-3.5 1 1.4 2.6 3.2 3.3 4zM290 86.6l3.5 1.5-3-.4-3.7-.5c-.8 0-1-2-.4-2 .2 0 2 .7 3.7 1.5zM102.3 89c-2 1.6-3 3.4-2.7 4 .7 1.2-3.2 5-5.2 5-.7 0-1.3.3-1.3.7 0 .5-1 1.3-2.5 2-4.2 2-2.2-1.2 2.3-3.6 1.2-.5 2.2-1.7 2.2-2.4 0-.8 1.5-2.6 3.3-4 1.7-1.4 3.7-3 4.2-3.6.6-.5 1.5-1 2-1 .6 0-.5 1.4-2.3 3zm46.6 1c-.7 1-1.4 1.8-1.5 1.6-.6-.6 1-3.6 1.8-3.6.6 0 .5 1-.2 2zm-27.4 3.5c-.4.8-1 1.5-1.6 1.5-.6 0-.5-.6.2-1.5.7-.8 1.4-1.5 1.6-1.5.2 0 0 .7-.2 1.5zm196.3 1.7c-.3.7-.5.2-.5-1.2s.2-2 .5-1.3c.2.7.2 2 0 2.5zm20.3 2.2c0 1.6-.5 1.2-1.5-1.3-2-4-2-5 0-2.6.8 1 1.5 3 1.5 4zM127.8 96c-.6 1-3 3-5 4.2-2.3 1.3-5 3-6 4s-2.2 1.7-2.5 1.4c-.3-.3-2.3.8-4.4 2.5-2.2 1.8-4.4 3-5 2.5-.5-.3-.7 0-.4 1 .3.8-.2 1.6-1.5 2-1 .3-2.2 1.4-2.5 2.5-1 2.7-3 4.4-4 3-.6-1-.4-1 .4-.6.7.5 1 .3 1-.5-.2-1-.2-2.2 0-3 0-1.2.2-1.2 1-.2.5 1 1 .5 1.8-1.8 1-2.4 1-3 0-2.7-.7.2-1.2 1.2-1 2 .2 1 0 1.6-.6 1.5-.5-.2-2 1-3.5 2.4-1.6 1.8-3.2 2.5-4.5 2-1.3-.2-3 .7-5.2 2.8-2.5 2.5-3 2.7-2.5 1 .4-1.2.2-2-.5-2-.6 0-.8-.5-.4-1 .4-1 1-.8 1.5 0 1 1.2 1.2 1.2 2-.3.6-1 1.7-1.7 2.4-1.7s2.4-1.2 4-2.8c3.3-3.6 5.3-5.2 6.4-5.2.4 0 2-1.4 3.7-3 2-2 3.5-2.8 4.8-2.4 1.2.4 1.7.2 1.3-.4-.6-1 2-2.7 3.8-2.3.5 0 .6-.6.3-1.3-.4-1 0-1.3 1.5-1 1.4.4 2 .2 1.4-.5-.3-.6 0-1.4.5-1.8.7-.3 1.6 0 2 .7.7 1 1.2 1 2.6 0 1.2-1 1.5-1 1-.2-.4.7-2.8 2.3-5.4 3.6-4.4 2.2-9.5 6.6-7.7 6.6.4 0 2.2-1 4-2.3 1.6-1.3 4.4-3 6.2-3.6 1.7-.6 4.6-2.5 6.4-4 4-3.5 4.5-3.7 2.8-1zm62.6 1.5c.5 2.2.4 2.6-.4 1.5-.8-1.2-1-1-1 1.2 0 1.5-.4 3-1 3.2-.4.4-.4-1 0-3.2l1-4v-1.4c0-1.8.7-.6 1.4 2.7zM109 96c0 .5-.5 1-1 1-.6 0-.8-.5-.5-1 .3-.6.8-1 1-1 .3 0 .5.4.5 1zm22.6 7.7c-.3.8-1 1.2-1.5.8-.4-.3-1 0-1.4.4-.3.3.4.7 1.7.6 1.3 0 2 .4 2 1.2-.2.8 0 1 .5.8.4-.2 1.4 0 2.2.5 1 .7.8 1-1.2 1s-2.8.5-2.8 2c0 2-6 8.5-7 7.5-.2-.4.5-1.4 1.7-2.3 1-1 2.4-2.8 2.8-4.2.3-1.4.3-2-.2-1.4-1.4 1.8-4.3 2.4-6.3 1.4-1.3-.7-2-.7-2.6.2-.4.6-.3.8.3.5.6-.4 1.8 0 2.8.7 1.7 1.2 1.5 1.5-2.6 4.2-2.5 1.6-4.8 3.2-5 3.7-.4.4-1.3.6-2 .4-1-.2-1-.2-.6 0 .5.4-1 1.7-3.5 3s-3.6 2-2.5 1.7c1-.4 3-.8 4.2-.8 1 0 2-.4 1.7-.7-.7-1.4 2-1.7 3.2-.6 1 1-.3 2-4.7 4-3.4 1.5-6.6 2.6-7.2 2.4-.7-.3-2 .2-2.7 1-1.4 1.5-3.2 1.2-3.8-.8-.3-.7 0-1 .7-.6.5.4 1 .3 1 0 0-.6 1.2-1.5 2.8-2.2 1.8-.7 2-1 .5-.6-1.3.3-3 0-4-.6-1.7-1-1.7-1 0-.6 2.4.8 5.7-.2 5.7-1.6 0-.6-.6-.6-1.5.2-2.2 2-3-1.3-1-4.2l1.5-2.2v2.4c0 1.4.4 2 .7 1.2.3-.7 2.3-2.2 4.5-3.3 2.3-1.3 6.2-4.2 9-6.7 3.7-3.5 5.2-4.3 7-3.8 2 .5 2 .4.5-.5-1-.6-1.5-1.6-1-2 .3-.7 1-.7 2 0 1 1 1.2 1 .8-.2-.4-1 0-1.8 1-2.2 1-.4 1.5-1.2 1-2.3-.3-1 .2-2.4 1.2-3.6 1.8-2 1.8-2 2 1.3.3 1.7.2 4 0 4.7zM151 99c0 1.5-1.7 1-2.3-.4-.4-1 0-1.3 1-1 .6.4 1.3 1 1.3 1.5zm-91.2 2c-.7 1-2 2.2-2.6 2.5-1.3.5-.8-.8 1.3-3.2 1.7-2 2.6-1.5 1.3.7zm43.2-.8c0 .6-.3.8-.7.5-.3-.4-1.8.3-3.2 1.5l-2.5 2.3 2.4-2.8c2.5-3 4-3.5 4-1.5zm184.6 3c3.5 2.2 6.2 4.3 6 4.5-.6.6-4.5-1.6-7-3.8-1-1.2-2.5-2-3.2-2-.6 0-1.7-.7-2.4-1.5-2-2.5 0-1.7 6.6 2.7zM103 103c0 .5-.5 1-1 1-.6 0-.8-.5-.5-1 .3-.6.8-1 1-1 .3 0 .5.4.5 1zm31.4 2.2c-1 1.4-2.3-.2-1.7-1.8.4-1.2.8-1.3 1.4-.3.5.8.6 1.8.4 2.2zM88 103.4c0 .2-.7.7-1.6 1-.8.3-1.2.2-1-.4.7-1 2.6-1.4 2.6-.6zm-8 1.4c0 1-4.3 3.7-5.4 3.4-.5-.2-.4.4.3 1.2.6.8 1 2 .5 2.7-.6 1-1 .8-1.7 0-.8-1.2-.8-1-.4.2.3 1 1 2.6 1.2 3.5.4 1.4.3 1.5-.4.5s-1.4-.8-3 1.4c-2.5 3-2.8 6-.8 6.7 1 .4 1.3 0 1-1-.4-.6 0-1.3.6-1.3.7 0 1-.7.6-1.6-.5-1.2-.2-1.5 1.2-1.2 2.3.6 5.2-.8 5.2-2.5 0-.7-.4-.6-1 .3-.5.8-1.2 1-1.6.7-.4-.4 0-1.5 1-2.4 1-1.2 1.6-1.3 1.6-.5 0 .7.5 1 1 .6.7-.3.5.7-.3 2.2C78 121.3 75 136.2 74 147c-.4 4.7-.8 7-1 5l-.3-3.5-.8 3.5c-.6 2.2-.8-1-.6-9 .2-7 .2-11.7 0-10.8-.3 1-1 1.5-1.8 1.2-.8-.3-2 .2-3 1.2s-2 1.4-2.2 1c-.3 0 .2-1 1-2 1-.8 1.6-2.3 1.6-3.3 0-1.5.2-1.6 1-.3.5.8 1.2 1 1.6.7.4-.4 0-1.6-1-2.7-1-1-1.6-2.3-1.3-2.7.4-.3.7 0 .7.5 0 .7.4 1.2 1 1.2s.5-1-.2-2.5c-1-2.5-1.2-2.4-4.5 3.6-2 3.5-3.2 6.5-3 6.8.4.3.2 1-.3 1.8-.6.6-1.3 3.5-1.7 6.4-.4 3.5-1 4.7-1.5 3.8-.6-1-.8-.3-.7 1.7.2 1.6.2 4.6 0 6.5-.3 3.4-.3 3.4-1-1-.5-4.3-3-7-3-3.3 0 1-.4 1.3-.7.5-.3-.7.3-2.5 1.3-4 2-3 2.4-5 1-7-.7-1-.5-1.6.4-2.2.7-.5 1.5-1.5 1.6-2.4 0-.8.7-3 1.4-5 .6-2 1-4 .5-4.6-.3-.5 0-2 1-3.2 1.6-2.3 1.7-2.2 1 1.2l-1 5.5c-.3 1 .2.6 1-1 .8-1.7 1.4-4.4 1.5-6 0-2.3.3-2.7 1-1.5.5.8 1 1.3 1 1 .8-4.3 1-5.5 1.7-6 .3-.2.8 0 1 .7.3.8 1.3.3 3-1.4 1.2-1.4 2-3 1.8-3.3-.6-1 5.5-8 7-8 1 0 1.5.3 1.5.8zm227-.4c0 .2-.7.6-1.5 1-.8.3-1.5 0-1.5-.4 0-.6.7-1 1.5-1s1.5.2 1.5.4zm-5 4.7c-1.7 1.8-2 2.4-.8 3 1 .7.4 1-1.6 1-1.6 0-3.7.7-4.7 1.6-2.2 2-8.7 4.3-11.5 4.3-1.4 0-1.5-.3-.5-.7 4.7-1.7 13-5.7 13-6.3 0-.3-1.5-1.3-3.2-2.2l-3.3-1.6 3 .3c1.7 0 3.8.6 4.7 1 1 .4 2.7 0 4-1 3.2-2 3.6-2 1 .6zm-244 4.5c0 .5-.5.3-1-.5s-1-2-1-2.5c0-.6.5-.3 1 .5s1 2 1 2.5zm210 .7c0 .8-.6.6-1.5-.6-2-2.6-2-4.2 0-2.2.8.8 1.5 2 1.5 2.8zm-178-.7c0 1.2-2 1.2-2.3 0-.4-1 0-1.2 1-.8l1.3.8zm255.4 7c1 1 1.6 2 1.6 2.6 0 .7.7 2 1.6 2.7 1 1 1.4 2.6 1 4.5-.3 1.6-.2 2.7.3 2.4.3-.3.5.6.2 2-.2 1.4-1 2.4-2 2.4-1.4 0-1.4-.2-.3-1 .6-.4 1-1.3.5-2-.6-1-1-1-1.7 0-.6 1-.7.8-.3-1 .5-1.5.4-2-.4-1.6-.6.4-.8 0-.4-.8.3-.8-.4-2.3-1.5-3.3-1-1-2-2.7-2-3.8 0-1.6.2-1.7 1-.5 1.3 2 1.3.4 0-2s.2-2.7 2.4-.4zM48 125.2c-.4 1.4-1 2-1 1.3 0-1.5 1-4.5 1.6-4 .3.2 0 1.5-.5 2.8zm45 4c-1.3 2.8-2.4 5-2.6 4.7-.2-.2.6-2.7 1.8-5.5 1.2-2.8 2.3-5 2.6-4.8.2.2-.7 2.7-2 5.5zm204.5 1.6c3.6 4 5 5.2 6 4.4 1-.8 2.2-.2 5 2.4 1.8 2 4 3.6 4.5 3.6s1 .4 1 1c0 .5 2.3 3.8 5 7.2 2.8 3.5 5.3 7.3 5.6 8.5.4 1.3 1 2 1.3 2 .2-.3.6.7.7 2 0 2.7 0 2.6-3.7-1.5-2-2.3-4-5-4.4-6-.7-2-4.6-4.8-4.6-3.2 0 .5.5 1 1.2 1 .6 0 1 .3.5.6-.3.4 0 1.8.7 3.3.8 1.3 1.7 4 2 6 .6 3.2.5 3-1.5-1.3-1.7-3.5-2.6-4.5-3.2-3.5-.6 1-.7.6-.4-.8.4-1.3 0-3-1.4-4.4-1-1.3-2-1.8-2-1.2 0 .6.5 1.4 1 1.7.6.3 1 1.2 1 1.8 0 .7-1.2-.6-2.5-2.8-1.4-2.2-2.4-5-2.3-6 .2-1-.3-2-1-2.3-1-.3-1.2 0-.7 1 .4.7-1.3-.7-4-3.2-2.4-2.4-4.3-5-4-5.8.2-.7 0-1-.5-.7-.5.3-1.6-1-2.5-3-1-1.8-2.3-4-3-4.6-1-.7-1.5-1.6-1.5-2 0-2 3 .3 7.5 5.6zm3.5-2.4c0 1.2-.6 1-2.6-1.3s-2-2.3.4-1c1.2 1 2.2 1.8 2.2 2.2zm-163.3 3.5c-.3 1-.5.2-.5-1.7 0-2 .2-2.7.5-1.8.2 1 .2 2.6 0 3.5zm167.8-1.7c1 1 1.6 2 1.3 2-.3 0-1.3-1-2.3-2-1-1-1.6-2-1.3-2 .3 0 1.3 1 2.3 2zM78 135c-.4 2.5-.8 3.5-1 2.4 0-2.8 1.2-9.2 1.7-8 0 .7 0 3-.6 5.6zm225-2c0 .6-.5 1-1.2 1-.6 0-.8-.3-.5-.7.4-.3 0-1.3-.6-2.2-1-1.3-1-1.3.6 0 1 .6 1.7 1.6 1.7 2zm-181.3 1.2c-.3.8-.6.5-.6-.6 0-1 .3-1.7.6-1.3.3.3.4 1.2 0 2zm4 .3c-.4.8-1 1.5-1.7 1.5s-.7-.6 0-2c1.3-2.4 2.6-2 1.7.5zm36-2c-.3.4-1.2.5-2 .2-.7-.3-.4-.6.7-.6 1 0 1.7.3 1.3.6zM100 139c-3.6 3.2-7 6-7.5 6s-.4-.4.3-.7c.6-.2 1-1 .6-1.5-.5-.7-.2-.8.6-.3 1 .6 1.2.4.7-1-.4-1-.3-1.4.3-1 .6.4 3-1.2 5.3-3.4s4.6-4 5-4c.7 0-1.8 2.7-5.4 6zm19-4.6c2.2-1.3.8 2.5-1.7 4.7l-2.7 2.5 1.7-2.7c1-1.8 1.3-2.8.5-3-.7-.3-.8-1-.3-1.8.6-1 1-1 1.3-.2.2.7.8 1 1.3.6zM71 136c0 .5-.2 1-.4 1-.3 0-.8-.5-1-1-.4-.6-.2-1 .3-1s1 .4 1 1zm-7 3c0 1.2-.4 2-1 1.5-.5-.3-.7-1.2-.3-2 .7-2 1.3-2 1.3.6zm249-.5c1 1.3 1 1.4-.4 1-1-.4-1.6-1-1.6-1.6 0-1.4.6-1.2 2 .5zm-211 .8l-5.7 5.7-5.8 5.5 5.5-5.8c5-5.3 6-6.2 6-5.4zm-11 3c-1 1-1 .8-.4-.6.3-1 1-1.5 1.2-1.2.3.3 0 1-.7 1.8zm208 2.7c-1.2.7-1 1.2 0 2.7 2.7 3 6.7 12.3 8 18.5 1.3 6 3 7.7 3 3.5.4-5.6.8-9 1.4-9.4.6-.6 1 3.8.7 6.6 0 .7.3 1 1 .5 1-.6 1 .4.8 3.4-.2 2 0 4 .4 4s.5.7.2 1.5c-.4.8-1 1.2-1.5 1-.6-.4-1-.2-1 .4 0 .4.5 1.2 1 1.5.6.3 1 1.6 1 2.8 0 1.4-.4 1.7-.7.8-.3-.7-1.6 1.8-3 5.6l-2.3 7 .4-6c.3-5.3.2-5.6-.6-2.6-.6 2-1.4 4.4-2 5.5-1 2.7 0-6 1.3-9.5.7-1.6.7-4 0-6.5-.5-3-.8-3.3-1-1.5 0 1.4-.5 3.2-1 4-1 1-1 .8-.6-1.5 1.4-7.8 1.6-11 .7-9-.7 1.7-1 1.6-1-1 0-5.7-1.2-9.8-2.2-8.3-.5.8-.6.2-.2-1.6.5-2 .3-2.7-.4-2.2-.6.3-1.8-1.7-3-5-1-3.3-2.3-6.8-2.7-8-.8-2-.8-2 .8 0 .8 1.2 2 1.8 2.3 1.3.4-.4.2-.7-.4-.7-.7 0-1.2-.8-1.2-1.7 0-1.4.3-1.3 1.6.6 1.4 1.8 1.4 2.4.3 3zm53.7-1.8c-.3.7-.5.2-.5-1.2s.2-2 .5-1.3c.2.7.2 2 0 2.5zm-32.2.6c-.3.3-1 0-1.8-.7-1-1-.8-1 .6-.4 1 .3 1.5 1 1.2 1.2zM46.3 150c-.8 2-1.8 3.6-2.3 3.8-.6.2-1 1.2-1 2.2 0 1-.4 2-.8 2.4-.4.2-.8-1.2-.7-3.3 0-2.6.4-3.6 1.3-3.3.8.4 1 0 .6-1-.3-1 0-1.7.5-1.7s.7-.7.4-1.5c-.4-1-.2-1.3 1-1 1 .5 1.3 0 1-1.7-.4-2-.4-2 .5-.3.5 1.3.3 3.2-.7 5.5zm277-3c.3 1 0 1.8-.4 1.4-.6-.3-1-1.2-1-2 0-2 .7-1.7 1.3.6zm-216.5.8c-3.3 2-3.7 3.7-.8 3 1.2-.4 1.8-.2 1.4.4-.3.5-1.4.8-2.4.5-1.3-.3-1.7 0-1.3 1 .3.8-.2 1.3-1.7 1.3-2 0-2.2.4-1.8 3.2.4 2.7.3 3-.8 1.4-.8-1-1.8-1.5-2.5-1-.8.4-.4-.7.8-2.4 2.6-3.5 9-9.2 10.7-9.2.5 0-.2.8-1.7 1.8zm198 4.5c1 2 1.6 3.4 1 3-.4-.2-1.8-2.3-3-4.6-1-2.3-1.5-3.7-1-3 .7.4 2 2.6 3 4.6zm50.2.8c0 1.5-1.7 1-2.3-.4-.4-1 0-1.3 1-1 .6.4 1.3 1 1.3 1.5zm-304.3 5.7c-.2 1.6-.4.5-.4-2.2 0-2.8.2-4 .4-2.8.2 1.3.2 3.5 0 5zm-3.7 5.8c-.7 1.3-1 3.5-.6 5.2.5 2 .4 2.4-.4 1.3-.7-1-1-.6-1 2.2 0 2-.4 4-1 4.3-.5.3-1 1.5-1 2.6 0 1.2-.7 2.3-1.5 2.6-.8.4-1.5 1.6-1.6 2.8 0 2-.2 2-1-.3-.8-1.6-.7-2.6 0-3 .8-.5 1-1.6.6-2.6s0-2 .6-2.6c1-.6 1-.8 0-.8-1.7 0-1.5-4 .3-6.4.8-1 1.5-3.4 1.6-5 0-2.7.3-2.8 1-1 .8 1.7 1 1.6 1-1 0-1.5.5-3.7 1.2-5 1.2-2 1.2-2 2 1.2.8 2.3.7 4-.2 5.7zm286.8 1c0 6.5 0 6.7-.8 2.5-.4-2.8-.8-3.6-1-2 0 2-.2 2.2-1 .7-.8-2.4 1-11 2.2-9.4.4.7.7 4.3.6 8.2zM358 158c0 .7-.4.8-1 .5-.5-.3-1-1-1-1.6 0-.7.5-.8 1-.5.6.3 1 1 1 1.6zm-230 5.2c-.7 2.8-.8 3-1 .8 0-3.4 1.3-8 1.8-5.8.2 1 0 3-.7 5zm13.7 1c-.3.8-.6.5-.6-.6 0-1 .3-1.7.6-1.3.3.3.4 1.2 0 2zm175.3 2c0 .5-.4.6-1 .3-.5-.3-1-1-1-1.6 0-.7.5-.8 1-.5.6.3 1 1 1 1.6zm31.3-.5c-.8 2-4.3 6-4.3 5 0-.8 4-6.7 4.7-6.7 0 0 0 .8-.4 1.7zM148 168c0 1.4-3 4-4.6 4-1.7 0-1.8-2.4-.2-5 1-1.4 1.6-1.6 3-1 1 .6 1.8 1.5 1.8 2zm168.7 2.2c-.3.8-.6.5-.6-.6 0-1 .3-1.7.6-1.3.3.3.4 1.2 0 2zm37.3 0c0 1-.4 1.6-1 1.3-.5-.3-1-1.3-1-2 0-1 .5-1.5 1-1.5.6 0 1 1 1 2zm-232 3c0 1.5-.4 2.7-1 2.4-.7-.5-.2-5.6.6-5.6.2 0 .4 1.4.4 3zm197.7 0c-.3.8-.6.5-.6-.6 0-1 .3-1.7.6-1.3.3.3.4 1.2 0 2zm-167.5 1.6c-.7.2-1.2 1-1.2 1.6 0 .7-1 2-2 3-1.8 1.7-2 1.7-2 .3 0-1 .4-1.7.8-1.7.5 0 1.4-1.2 2-2.6.8-1.5 1.7-2.2 2.4-1.8 1 .6 1 1 0 1.2zm148.5 1.4c-.3.7-.5.2-.5-1.2s.2-2 .5-1.3c.2.7.2 2 0 2.5zm-266.4 7.3c.7-.4.4 0-.5.8-1 .8-1.8 2.3-1.7 3.3 0 1 .4 1.4.6.8.8-1.8 4.4-.4 4.4 1.7 0 2.7-3.6 4.7-9.7 5.4l-5.3.7V193c0-2.2.3-3 1-2 .5 1 1 .8 1.5-1l.8-2.3.4 2.2c.8 4 3 1.8 3.8-4 0-1 .8-3.8 1.6-6.4l1.5-4.8.3 4.8c.2 3.3.7 4.6 1.5 4.2zm337.7-4.7c0 1-2.2 3.2-3 3.2-1 0-2-4-1.4-5.2.6-1 4.4.8 4.4 2zM51.3 184c.4 3.4.3 4.7-.2 3.5-.7-2-.8-2-2 .5-1 3-5 7.5-5.5 6.8-1-1 .8-4.8 2-4.8 1 0 1.6-1 1.7-2.8l.2-3.7c.2-1 3-5.6 3.2-5.2l.7 5.7zm314.4-2.8c-.3.8-.6.5-.6-.6 0-1 .3-1.7.6-1.3.3.3.4 1.2 0 2zm-253.2-.2c.3.5.3 1.5 0 2-.7 1.2-2.4-.5-2.5-2.3 0-1 1.8-1 2.5.3zm-4.7 5.2c1.4 1.4 1.6 2.8.2 2.8-.5 0-1.4-1-2-2-1.2-2.2 0-2.7 1.8-.8zM303 186c0 .5-.4 1-1 1-.5 0-1-.5-1-1 0-.6.5-1 1-1 .6 0 1 .4 1 1zm65.5 4c.3.5 0 1-.4 1-.5 0-1-.5-1-1 0-.6.2-1 .4-1 .3 0 .8.4 1 1zm-91.2 1.6c1 .3 1.7 0 1.7-.5s.7-.7 1.5-.4c1.8.7 2 2.7.4 5.2-1 1.6-2 1.7-13 .5L256 195c-1.8 0-.6-1.5 1.5-1.7 1.2 0 4.5-.8 7.2-1.7 4.5-1.3 7.8-1.3 12.8 0zM111 192c0 .5-.4 1-1 1-.5 0-1-.5-1-1 0-.6.5-1 1-1 .6 0 1 .4 1 1zm201.4 1.5c.3 1 0 1.5-1 1.5-.8 0-1-.6-.8-1.5.4-.8.7-1.5 1-1.5l.8 1.5zM121 198c-.4.5-1 .6-2 0-.6-.4-1-1.3-.5-2 1-1.4 3 .2 2.4 2zm45-.7c0 .4.5.5 1 .2.6-.3 1-.3 1 .2 0 .4-2.6.8-5.7.8-3.2 0-6.7.3-7.8.6-3.8 1-10 4-10.7 5.3-.6 1-.8.8-.8-.3 0-2 3-3.7 9.4-6 5.2-1.8 13.6-2.3 13.6-.7zm141.8 2.8c-2.4 1.7-3 1-1-1.7 1.4-2.3 1.7-2.4 2-1 .2 1-.2 2.3-1 2.8zM172 199c.8.5 1 1 .5 1s-1.7-.5-2.5-1-1-1-.5-1c.6 0 1.7.5 2.5 1zm-85.6 2c.4.4-.3.6-1.4.3-2.3-.6-2.6-1.3-.6-1.3.8 0 1.7.4 2 1zm76.6.5c0 1-1 1.5-2.5 1.5-1.6 0-2.5-.6-2.5-1.5 0-1 1-1.5 2.5-1.5 1.6 0 2.5.6 2.5 1.5zm94.4 0c-.6 1.6-4.4 2-4.4.7 0-1.4 1.2-2.2 3-2.2 1.3 0 1.7.5 1.4 1.5zM37.4 221c.4.5 0 1-1 1-.8 0-1.2-.5-1-1 .4-.6 1-1 1-1 .3 0 .8.4 1 1zm6.6 3.5c0 .8-.2 1.5-.4 1.5s-.6-.7-1-1.5c-.3-.8 0-1.5.4-1.5.6 0 1 .7 1 1.5zM380 238c0 2.6-2 8-3 8-1.2 0-1.2-.2 0-5.6 1.2-4.4 3-6 3-2.5zm-10 3.2c0-.6.7-1.2 1.5-1.2 1.7 0 2 2.7.5 5-.8 1.3-1 1.3-2 0-1-1.8-2.7-.6-3.5 2.8-.3 1.5-1.6 3.2-3 3.8-2.5 1.2-7 .8-8-.7-.4-.6-1.5-1-2.5-1s-2-.4-2.4-.8c-.3-.5.8-.6 2.4-.4 2.7.4 9-1.6 9-3 0-.2-2-.5-4.7-.5-8 0-8.3-.2-7.6-1.8.4-1.2 2-1.6 6.2-1.6 7.5 0 10.7-.4 11.6-1.3.4-.4 1-.2 1.6.5.6 1 .8 1 .8 0zm-325.5 5.6c.4 2.5.2 3.3-.7 3-.7-.3-1.4-2.2-1.6-4.4-.4-4.7 1.4-3.6 2.3 1.4zm288.2.4c-.3.8-.6.5-.6-.6 0-1 .3-1.7.6-1.3.3.3.4 1.2 0 2zm35.6 1.3c-.3 1-.8 1.4-1 1-.3-.2-.2-.8.2-1.4 1-1.5 1.5-1.2.8.5zm-324 3.4c.2-1 .5-.8 1 .3.3 1 .2 1.7-.3 1.7-1.5 0-1.2 3 .3 3 .6 0 .3.5-.8 1-1.7.7-1.7 1-.2 1 2.8 0 2.2 4-.7 4-2.2 0-2.3-.3-2.2-6.5 0-5.2.3-6.2 1.2-5 1 1.2 1.3 1.3 1.6.4zm293.6 4c3.3 5.7 4 8.2 1 3.5-2.6-3.7-5.2-8.5-4.7-8.5.2 0 1.8 2.3 3.6 5zm-298.3-.8c-.3.8-.6.5-.6-.6 0-1 .3-1.7.6-1.3.3.3.4 1.2 0 2zm328.8 4.8c.3.5 0 1-.4 1-.5 0-1-.5-1-1 0-.6.2-1 .4-1 .3 0 .8.4 1 1zm-14.7 22c-1.8 1.3-2.5 1.2-3-.3-.5-1 0-1.3 2-1 1.7.4 2 .8 1 1.4zm9.8 1c-.7 1-4.6 2-4.6 1 0-1.2 1.3-2 3.2-2 1 0 1.7.4 1.4 1zm-27 4.7c-1 1-2-.5-1-1.8.6-1.2.8-1.2 1.2 0 .2.6 0 1.4-.2 1.7zm13.4-1.3c0 .3-.4.8-1 1-.5.4-1 .2-1-.3s.5-1 1-1c.6 0 1 .2 1 .4zM319 297c0 .6 1.6 1.8 3.5 2.7 2 1 3.2 2 3 2.5-.4.5 0 .8 1 .6.7-.2 4 1.7 7 4.2 5 4 5.4 4.6 4 5.6-1 .7-1.6 1.6-1.5 2 0 .5-.3 1-1 1.2-.5.2-1-.7-1-2 0-3.7-1.5-5-6-5.3-4.6-.3-9-4-9-8 0-1-.5-2.6-1.2-3.3-1-1-1-1.2 0-1.2.7 0 1.2.5 1.2 1zm21.7-.4c-.3.3-1.2.4-2 0-.7-.2-.4-.5.7-.5 1 0 1.7.3 1.3.6zM330 299c.7 0 .8-.5.5-1-.5-.7.3-.8 2.2-.3 1.5.4 4 .6 5.3.5 1.4 0 3.5 0 4.8.4 2 .4 2.3 1 2 3.7-.3 2.8-.7 3.2-3.5 3.5-2 .2-3.3 0-3.3-.7 0-.5-1-1-2-1s-2-.5-2-1c0-.6-.6-1-1.3-1-2 0-5.8-3-5-4.3.5-.8.8-.8 1 0 .3.8 1 1.3 1.4 1.3zm10.7 9.6c-.3.3-1.2.4-2 0-.7-.2-.4-.5.7-.5 1 0 1.7.3 1.3.6zm-11 3.5c.2.6 0 1.5-.2 2-.7 1-4.5-1.5-4.5-3 0-1 4 0 4.6 1zm-59 18.2c-.3.7-.5.2-.5-1.2s.2-2 .5-1.3c.2.7.2 2 0 2.5zm-11 10c-.3.8-.6.5-.6-.6 0-1 .3-1.7.6-1.3.3.3.4 1.2 0 2zm-99.3 9.3c-.4.8-1 1.5-1.6 1.5-.6 0-.5-.6.2-1.5.7-.8 1.4-1.5 1.6-1.5.2 0 0 .7-.2 1.5zm18.6 2s-.7.6-1.6 1c-.8.2-1.2 0-1-.5.7-1 2.6-1.4 2.6-.6zm4.4 5c-.4.8-.8 1.5-1 1.5-.2 0-.4-.7-.4-1.5s.4-1.5 1-1.5c.5 0 .7.7.4 1.5zm46.3 8.2c-1.3 1.3-1.3 1-.3-2.2 1-3 1.2-3.2 1.4-1.5.2 1.3-.3 3-1 3.7zm-94 8.8c0 1.4-.5 2.5-1 2.5-1 0-1-1.3 0-3.4.8-2.3 1-2 1 1z"/><path d="M266.4 48c1.3 1 1.5 1.4.6 2-.8.5-.7 1 .5 1.3 1 .4 1.3.3 1-.3-.3-.6 0-1 .6-1 .8 0 .5-.7-.6-1.5-1-.8-2.3-1.4-3-1.4-.4 0 0 .5 1 1zM141.5 58c.4.6 1 .8 1.6.5 1.5-1 1.2-1.5-.6-1.5-.8 0-1.2.5-1 1zM117 61c0 .5.5 1 1 1 .6 0 1-.5 1-1 0-.6-.4-1-1-1-.5 0-1 .4-1 1zM122.7 61c-1.6.5-1.7.8-.4 1.8 1 1 1.7 1 2.7-.3.7-.8 1.7-1.2 2.4-.8.6.3.7.2.3-.2-1-1.2-2.8-1.4-5-.6zM271 76.4c0 .2.7 1 1.5 1.6 1 .7 1.5.8 1.5.2 0-.5-.7-1.2-1.5-1.6-.8-.3-1.5-.4-1.5-.2zM255 84.5c0 .5.5 1.7 1 2.5s1 1 1 .5c0-.6-.5-1.7-1-2.5s-1-1-1-.5zM169.3 88.8c-2.5 3-3 4.7-1.3 5.7.5.3.7 0 .5-.8-.3-.7.3-2.4 1.5-3.7 1.7-2 2.6-4 1.8-4-.2 0-1.3 1.3-2.5 2.8zM207.2 90c-.6 2.4-.7 4-.2 3.4 1-1 2.4-7.4 1.7-7.4-.3 0-1 2-1.5 4zM213 88c0 .8.5 2.2 1 3 1.2 1.8 1.2.2 0-2.5-.6-1.3-1-1.5-1-.5zM209.2 94c0 1.4.2 2 .5 1.2.2-.6.2-1.8 0-2.5-.3-.6-.5 0-.5 1.3zM174.5 96c-.3.5 0 1 .4 1 .5 0 1-.5 1-1 0-.6-.2-1-.4-1-.3 0-.8.4-1 1zM177.2 100.5c0 1.6.2 2.2.5 1.2.2-1 .2-2.3 0-3-.3-.6-.5 0-.5 1.8zM203.2 100c0 1.4.2 2 .5 1.2.2-.6.2-1.8 0-2.5-.3-.6-.5 0-.5 1.3zM183.6 101.7c-.6 1.4-.5 1.5.5.6.8-.7 1-1.5.8-1.8-.3-.3-1 .2-1.2 1.2zM145 104.6c-1 1.2-1 1.8 0 3 1.3 1 1.5 1 1.5-1.6 0-3.5 0-3.4-1.5-1.4zM187.3 108.6c-.4 1-.8 1.2-1.3.4-.5-.8-1-.6-2 .5-1 1.3-1 1.5.4 1 1-.4 1.6-.2 1.6.4 0 .5-.4 1-1 1-2 0-2.5.2-3.7 1.2-.7.6-1 1.4-.8 2 .3.3-.3 1.2-1.4 1.8-1 .6-1.7 1.6-1.4 2.4.5 1.3-5.3 4.2-6.4 3-.3-.2 0-.4.4-.4.6 0 2-.7 3-1.5 2-1.5 2-1.5 0-.8-3 1-6.3 3.3-4.8 3.3.7 0 1 .4.7 1-.3.5 1 .4 3 0 2-.7 4.3-1 5-.6 1 .3 1.2 0 1-1-.7-1.3 2.5-9 3.8-9.3h1.7c.5 0 1.6-1.4 2.5-3 1-1.7 1.3-3 1-3-.3 0-.8.7-1.2 1.6zM174.5 109c-.4.7-.5 1.3-.2 1.6.2.3.7-.2 1-1 .7-1.8 0-2-.8-.5zM157 112c.4 3.4 0 6-1 6-.5 0-1-1-1-2s-.5-2-1-2c-.7 0-1 1-.7 2 .3 1.2 0 1.7-.8 1.4-.7-.3-1.5.2-1.8 1-.4 1-1.3 1.3-2.4 1-1-.4-1.5-.4-1 0 .3.5.3 1.4-.2 2-.4.6-1 2.7-1.3 4.7-.2 2-.8 4.3-1 5-.5.5-.4 1 .2 1 .5 0 1.2-1 1.6-2.5.3-1.4 1-2.3 1.4-2 .4.2.5-.6.3-2-.4-1.6 0-2.4 1.6-2.8 1-.3 2-1.3 2-2.4 0-1 .7-2 1.5-2s1.5.5 1.5 1c0 .7.5.6 1.2 0 1-1 1.5-.8 2.5 1 .7 1.2 1.2 1.6 1.3 1 0-.8.5-1 1-.8.6.3 1 .3 1-.2l.5-2.6c.2-1-.3-1.7-1-1.7-.8 0-2-1.2-3-2.8-.8-1.5-1.5-2-1.4-1.2zm4 6.5c0 1.2-2 1.2-2.3 0-.4-1 0-1.2 1-.8l1.3.8zM178 113.7c-1.4 1.6-1.3 1.7.3.4 1-.6 1.7-1.4 1.7-1.6 0-.8-.8-.3-2 1.3zM242.5 115.4c1 1.4 2 2.6 2.2 2.6.7 0-1.7-4-2.8-4.6-.7-.3-.4.5.5 2zM248.2 117.5c0 1.6.2 2.2.5 1.2.2-1 .2-2.3 0-3-.3-.6-.5 0-.5 1.8zM195 121c-.7 1.2-1 2.4-.7 2.6.2.2 1-.7 1.5-2 1.4-3 .7-3.4-.8-.5zM162.5 124c-.4.7-.5 1.3-.2 1.6.2.3.7-.2 1-1 .7-1.8 0-2-.8-.5zM247.5 126.8c-.4 2.4-.5 4.6-.2 5 .8.6 2-6.4 1.4-8-.2-.7-.7.6-1.2 3zM165 126c-.8.5-1 1-.5 1 .6 0 1.7-.5 2.5-1s1-1 .5-1-1.7.5-2.5 1zM161 127.4c0 .2.7.7 1.6 1 .8.3 1.2.2 1-.4-.7-1-2.6-1.4-2.6-.6zM139.6 135.2c-.3 1.3-.5 3.2-.5 4.3.2 1 .6.2 1-2 1-4 .7-6-.4-2.3zM246.3 136c-.2 2.4.3 2.6 1 .5.4-.8.3-1.6 0-2-.5-.2-1 .5-1 1.6zM169 140c-1.8 1.2-.2 1.2 2.5 0 1.3-.6 1.5-1 .5-1-.8 0-2.2.5-3 1zM133 142.6c0 1 .4 1.4.7.6.3-.7.2-1.6 0-2-.4-.3-.7.3-.6 1.4zM130 149.6c0 1 .4 1.4.7.6.3-.7.2-1.6 0-2-.4-.3-.7.3-.6 1.4zM175.6 161.7c-.6 1.4-.5 1.5.5.6.8-.7 1-1.5.8-1.8-.3-.3-1 .2-1.2 1.2zM168.6 165.5c-1 2.6-.7 3.2.5 1.2.7-1 1-2 .7-2.3-.2-.3-.7.2-1 1zM173 166.7c-1 1.6-2.3 3.2-2.8 3.8-.4.5-1 1.4-1 2-.2.5-1 1-1.8 1-.8-.2-1.4.4-1.4 1 0 1.2.5 1.3 2 .6 1.7-1 4.8-5 4.6-6 0-.5.8-1.7 1.8-3 1-1 1.6-2 1.3-2-.3 0-1.5 1.2-2.6 2.7zM169.6 181.2c.3.4 1 .5 2 0 2-.6 1.8-1-.5-1-1 0-1.7.6-1.4 1zM135 196c0 .5.5 1 1 1 .6 0 1-.5 1-1 0-.6-.4-1-1-1-.5 0-1 .4-1 1zM165.8 209.7c.7.3 1.6.2 2 0 .3-.4-.3-.7-1.4-.6-1 0-1.4.4-.6.7zM222.7 260.8c-3.2 3.2-4.4 3.7-10 4.2-5.8.6-6.4.5-9.5-2.2-2-1.7-4.4-2.8-6.2-2.8-3 0-9.4 4.5-8.5 6 .3.5 0 1-.5 1.5-1.5 1-.2 2.5 1.8 2 4.3-.7 7.2-1.8 7.2-2.6 0-2.8 9.6.7 12 4.3.5.5 2 1 3.4 1s2.6.3 2.6.7c0 .7 1.7 1 5.5 1 3 .2 5-.4 6-1.7 1.8-2 6.2-2.6 6.8-.8.6 1.4 1 1.4 3.2 0 5.8-4 5.8-9.5 0-9.3-2.3 0-4.5-.8-6.8-2.5l-3.4-2.6-3.6 3.8zM301.7 290.6c-.4.4-.7 1.4-.7 2.3 0 1 .3 1 1 .3.7-.6 1-1.6.8-2.3-.2-.6-.7-.8-1-.4zM253.7 293.3c-.3.8 0 1.4.8 1.4.7 0 1-.6.8-1.4-.3-.7-.6-1.3-.8-1.3-.2 0-.5.6-.8 1.3z"/><path d="M260.8 295.6c.3 2.6 0 3.4-1.2 3.4-1 0-1.6-.4-1.6-1 0-.7-1.6-1.2-8.8-2.6-1.5-.3-2 0-1.7.6.4.6-.6.8-2.4.6-1.7-.2-3 0-3 .8 0 .6-.5.4-1-.4-1-1.3-1-1.3-2 0-.5.8-1 1-1 .5 0-.6-.5 0-1 1-.8 2-1 2-1 0 0-1.7 0-1.7-2 0-1.3 1.2-2 1.4-2 .5 0-.8-.6-1-1.7-.5-1 .4-6.3 1-11.8 1-5.5.4-11.4 1-13 1.7-2 .7-4.3.8-6 .3-4.3-1.2-4.8-1.2-6.7-.3-1 .5-1.8.5-1.8 0s-1.6-.8-3.4-.5c-2 .2-5.3 0-7.5-.6-3-.6-3.7-.5-3.3.5.5 1.4-1.3 1.5-3.2.3-.6-.4-2.7 1-4.8 3.2-2 2-3.3 4-2.8 4.5.5.3 1.8-.4 2.8-1.6 1.5-1.6 2.2-1.8 2.7-1s.4 1-.2.7c-.6-.4-1.3.4-1.5 1.8-.5 2.2-.3 2.4 1 1.3 1-.7 2-1.8 2.4-2.3.4-.6.8-.6.8 0 0 .4.8 0 1.8-.7 3.2-3 10.5-3.4 46.4-3.4 33.7 0 35.7 0 35.2-1.7-.4-1.3 0-1.6 1.8-1.4 1.3.2 2 .8 1.8 1.3-.3.5-.8.8-1.2.6-.5 0-.8.2-.8.7 0 .4 1 .7 2.5.6 2 0 2.3-.5 2-2-.4-1-.3-1.6.2-1.3.5.3.8-.7.7-2 0-1.6-.6-2.7-1.2-2.6-.6.2-1-.3-.6-1 .3-.8 0-1.7-.8-2-1-.3-1.3.4-1 3zm-85.2 7.6c.4-.4.2 0-.5 1-1.5 2-3.2 1.4-2.3-1 .5-1 .3-1.3-.7-.7-1 .6-1 .4-.5-.5.6-1 1-1 2 .3.7 1 1.6 1.3 2 1zM294 306c-.6 1-1 2.6-.7 3.3.3.7 1 0 1.6-1.7 1.3-3.5.6-4.7-1-1.6zM163.8 310.7c.7.3 1.6.2 2 0 .3-.4-.3-.7-1.4-.6-1 0-1.4.4-.6.7zM278.6 314c-.3.4 0 1 1 1.3.8.4 1 0 .7-1-.6-1.5-1-1.6-1.7-.4zM274 316.2c0 1 .4 2 1 2.3.5.3.7 1.3.4 2.3-.5 1.4-.3 1.4.6-.2.8-1 1-2 .3-2.5-.6-.2-1.3-1.2-1.6-2-.4-1.2-.6-1.2-.6.2zM207.5 317c-3 .5-3.3.8-1.5 1 1.4 0 2.8.2 3.3 0 .4 0 .7.5.7 1 0 1 .5 1 1.5 0 .8-.7 2-1 3-.7.8.4 1.7.3 2-.2.2-.3 1.8-.5 3.5-.2 1.6.2 3 0 3-.6 0-1-9-1-15.5 0zM159.7 322.7c-.4 2-.2 4.2.2 4.7.4.6 1 2 1.3 3 .3 1.2.4.2 0-2.2-.4-3.2-.2-4.2 1-4 .6.2 1.2-.3 1-1-.2-3.7-.4-4.2-1.7-4.2-.8 0-1.6 1.5-2 3.7zM159 331.6c0 1 .4 1.4.7.6.3-.7.2-1.6 0-2-.4-.3-.7.3-.6 1.4zM265.5 80c.3.5.8 1 1 1 .3 0 .5-.5.5-1 0-.6-.5-1-1-1-.6 0-.8.4-.5 1zM115 86c-.8.5-1 1-.5 1 .6 0 1.7-.5 2.5-1s1-1 .5-1-1.7.5-2.5 1zM110.2 88c-1 .6-1 .8.3 1.3 1 .4 1.4.3 1-.2-.3-.4 0-1 .7-1.3.7-.3 1-.6.3-.6-.5 0-1.6.4-2.3 1zM104.5 105c-.3.5-.2 1 .4 1 .4 0 1.2-.5 1.5-1 .3-.6.2-1-.4-1-.4 0-1.2.4-1.5 1zM76 122.6c0 1 .4 1.4.7.6.3-.7.2-1.6 0-2-.4-.3-.7.3-.6 1.4zM72.6 127.7c-.4 1-.2 2 .4 2.7.7.7 1 .2 1-1.7 0-3-.5-3.4-1.4-1zM301.6 138.7c2.6 3.7 3 4 4.5 2.7 1-.8 2-1 2.5-.7.5.5.4 0-.3-.8-.6-1-.8-2-.4-2.6.4-.4 0-.3-1 .4-1.3 1-1.7 1-2 0-.5-1-.7-1-.7 0s-.8.8-2.7-1l-2.7-2.3 3 4.2zm4.8 1.5c-.3.4-1 .8-1.5.8-.6 0-1-.4-1-.8 0-.5.7-1 1.5-1s1.2.5 1 1z"/><path d="M309.3 143.6c1 1 1.7 2.6 1.7 3.2 0 .6.4 1.3 1 1.6 1.7 1.2-.3-3.3-2.3-5-2.2-2-2.2-2-.4.2zM310.6 172.5c-.3 1-.6 2.6-.5 3.8.2 1.6.5 1.2 1-1.2 1-3.3.7-5.4-.4-2.5zM174.4 8.6c-1.8 1.5-1.8 1.5.6 1l3.3-.6c.4 0 .7-.5.7-1 0-1.5-2.4-1.2-4.6.6zM152.8 12.7c.6.2 1.8.2 2.5 0 .6-.3 0-.5-1.3-.5-1.4 0-2 .2-1.2.5zM231 13c-.8 2.6-.7 4 .2 3.2.6-.6.8-1.6.5-2.4-.3-.7-.6-1-.7-.8zM377.7 209.2c-.4 2-1.5 4.4-2.3 5.3-1 .8-1 1.5-.5 1.5 1.5 0 4.2-5.8 3.8-8.3-.3-1.6-.6-1.2-1 1.5zM368 227.6c-2.4 2.5-2.4 2.6-.3 1.5 2.3-1 3.8-2.8 3-3.6-.2-.2-1.4.8-2.8 2.2zM32 229c0 .5.7 1 1.6 1 .8 0 1.2-.5 1-1-.4-.6-1-1-1.7-1-.6 0-1 .4-1 1zM334.5 353c.4 1.3.7 5.2.7 9 0 3.5.4 7 1 7.7.6.7.8 2.4.6 3.8-.4 1.7 0 2.5.8 2.5 1 0 1.4 1.2 1.3 3.7l-.3 3.8-.7-3.5c-.8-4-.7-4.6-1.6 10.7-.6 9-.5 9.3 1.5 9.3 1 0 2-.6 2-1.6 0-.8-.4-1.3-1-1-.4.4-1 .2-1.4-.3-.8-1 .4-12 1.3-11.8 1 .2 6-1.4 6-2 0-.4-.5-1.6-1-2.7-.7-2-.7-2-1.4.2-.4 1.3-1.2 2.3-1.7 2.3-1.4 0-1.2-4.8 0-5.2 1-.3 1-1 .2-2.4-.6-1.2-.7-2.6-.2-3.4 1-1.6.3-3.3-1-2.5-.6.4-1 0-1-1 0-1.2.5-1.5 1.6-1 1.7.6 4.8-2 4-3.4-.3-.4-1.5-.6-2.6-.3-1.7.4-2 0-2-2.5 0-3.3-3.5-10.2-5.2-10.2-.5 0-.6 1-.3 2zM140.8 361.2c.3 1.3 1.4 3.4 2.5 4.8l2 2.5-.7-3.4c-.6-3.4-2.2-6-3.6-6-.5 0-.6 1-.2 2.2zM323 365.5c0 1 .6 1.2 1.5 1 .8-.5 1.5-.8 1.5-1 0-.2-.7-.5-1.5-1-1-.2-1.5 0-1.5 1zM96 367c0 1.6-.7 3.3-1.5 4-2 1.6-.4 3.6 2 2.7 1.7-.7 2-5.3.5-7.7-.8-1.2-1-1-1 1zM114 371.6c0 1 .4 1.4.7.6.3-.7.2-1.6 0-2-.4-.3-.7.3-.6 1.4zM128.2 371.2c-.7.7-1.2 2-1.2 2.7 0 1 .5.7 1.6-.8 1.8-2.5 1.5-4-.4-2z"/><path d="M343.5 372c1 3 2.5 5 2.5 3 0-.8-.8-2.4-1.6-3.5-1.6-2-1.6-2-1 .5zM85.8 374c-1.3 1-3.7 2.2-5 2.5-2.8.7-4 3.5-1.5 3.5 1 0 1 .2 0 .8-1.3.8-3 6.2-2 6.2.5 0 2-1.2 3.2-2.8 2-2.2 2.6-2.5 3.4-1.2.5.8 1.3 1 1.7.6.4-.5 0-1.3-.8-2-1.4-.7-1.2-1.3 2-4.2 2.5-2.3 3.2-3.6 2.4-4.4-.8-.8-1.8-.5-3.6 1zM108.6 373.6c-.4 1 0 1.4.6 1.2 1.5-.5 2.3-2.8 1-2.8-.5 0-1.3.7-1.6 1.6zM353 376.5c.7.8 1 1.5.4 1.5-.4 0-.3.5.4 1.2s1.2 2.2 1.2 3.4c0 1.3.6 3 1.3 3.6.8.7 1.6 2 2 2.8.2.8.6 0 1-1.8 0-1.7 0-3.2-.4-3.2-.5 0-.6-1-.3-2 .4-1.3 0-2-1-2-.7 0-2-1-2.7-2.5-.7-1.4-1.8-2.5-2.3-2.5-.5 0-.4.7.3 1.5zM107 378.2c0 .7-.3 2.4-.6 3.8-.6 2.4-.6 2.5 1 .5 1.7-2.2 2-5.5.6-5.5-.5 0-1 .6-1 1.2zM111.5 379c-.3.5 0 1 .4 1 .5 0 1-.5 1-1 0-.6-.2-1-.4-1-.3 0-.8.4-1 1zM111 385c0 2.2.2 4 .4 4 .8 0 1.2-7 .4-7.6-.4-.3-.8 1.3-.8 3.5zM103.5 383c-.3.5 0 1 .4 1 .5 0 1-.5 1-1 0-.6-.2-1-.4-1-.3 0-.8.4-1 1zM69.4 387.6c1 2.7-1.2 5.6-3.7 4.8-1.8-.5-2-.4-1 .7 1.6 1.7 1.7 4.4.2 3.4-.8-.4-1 0-.8 1.2.2 1.2 1.3 2 3 2.2 2.2.3 2.8-.2 3.8-3.2.6-2 2-3.8 3-4 1.2-.5 2-1.6 2-3 0-2 0-2-1-.3-1 1.4-1.5 1.6-2.6.6-.8-.7-1.4-2-1.4-2.6 0-.8-.5-1.4-1-1.4-.7 0-1 .7-.6 1.6zM133.2 389c-.8 2-.7 3 .2 4 1 .6 1.2 0 1.3-3 .2-4.8-.2-5-1.5-1zM339 390.8c0 3.3 0 3.4 1.8 2 1-1 2.6-1.8 3.4-1.8 1 0 2-.7 2.2-1.6 1-2.4-.3-3.2-1.5-1-1.3 2-3 2.2-3 .3 0-.8-.7-1.4-1.5-1.4-1 0-1.5 1-1.5 3.5zM315 389.4c0 .8.4 1.7 1 2 .4.4.6-.3.3-1.4-.6-2.3-1.3-2.6-1.3-.6zM34.5 392c-.3.5.3 1 1.4 1 1 0 2-.5 2-1 0-.6-.6-1-1.4-1-.8 0-1.8.4-2 1zM96.5 394c.3.5.8 1 1 1 .3 0 .5-.5.5-1 0-.6-.5-1-1-1-.6 0-.8.4-.5 1zM129.2 394.2c.5 1.5 2.8 2.3 2.8 1 0-.5-.7-1.3-1.6-1.6-1-.4-1.4 0-1.2.6zM371.5 396c-.3.6 0 .7 1 .4 1.7-.7 2-1.4.6-1.4-.5 0-1.2.4-1.5 1zM39.6 397c-.4.4.3.6 1.4.3 2.3-.6 2.6-1.3.6-1.3-.8 0-1.7.4-2 1zM133.2 397.7c.3 2 3.8 3 3.8 1.4 0-.5-.7-.7-1.5-.4-1 .5-1.3.2-1-1 .4-1 .2-1.6-.5-1.6-.6 0-1 .8-.8 1.7zM362.5 398c-.4.7-.4 1.4 0 1.7.7.8 3.5-.5 3.5-1.7 0-1.3-2.7-1.3-3.5 0zM368 399c0 .6.5.8 1 .5.6-.3 1-.8 1-1 0-.3-.4-.5-1-.5-.5 0-1 .5-1 1z"/></svg>